<svg width="1280" height="720" viewBox="0 0 1280 720" fill="none" xmlns="http://www.w3.org/2000/svg">
<g clip-path="url(#clip0_26_6)">
<rect width="1280" height="720" fill="white"/>
<g filter="url(#filter0_d_26_6)">
<rect y="66" width="1280" height="654" fill="#F4F7FE"/>
</g>
<path d="M0 0H1285V165H0V0Z" fill="url(#paint0_linear_26_6)"/>
<path d="M206.842 40V23.8955H212.547C218.267 23.8955 221.127 26.5122 221.127 31.7456C221.127 34.2537 220.345 36.2565 218.78 37.7539C217.222 39.2513 215.145 40 212.547 40H206.842ZM210.469 26.8491V37.0576H212.266C213.838 37.0576 215.07 36.5859 215.961 35.6426C216.859 34.6992 217.309 33.4152 217.309 31.7905C217.309 30.2557 216.863 29.0503 215.972 28.1743C215.089 27.2909 213.846 26.8491 212.244 26.8491H210.469ZM233.02 40H229.662V38.3491H229.617C228.846 39.6369 227.704 40.2808 226.192 40.2808C225.076 40.2808 224.197 39.9663 223.553 39.3374C222.916 38.701 222.598 37.855 222.598 36.7993C222.598 34.5682 223.92 33.2804 226.562 32.936L229.685 32.5205C229.685 31.2627 229.003 30.6338 227.641 30.6338C226.271 30.6338 224.968 31.0418 223.732 31.8579V29.1851C224.227 28.9305 224.9 28.7059 225.754 28.5112C226.615 28.3166 227.397 28.2192 228.101 28.2192C231.38 28.2192 233.02 29.8551 233.02 33.127V40ZM229.685 35.3281V34.5532L227.596 34.8228C226.443 34.9725 225.866 35.4928 225.866 36.3838C225.866 36.7881 226.005 37.1213 226.282 37.3833C226.566 37.6379 226.948 37.7651 227.427 37.7651C228.094 37.7651 228.636 37.5368 229.056 37.0801C229.475 36.6159 229.685 36.0319 229.685 35.3281ZM235.075 39.6968V36.8218C235.659 37.1737 236.239 37.4357 236.816 37.6079C237.4 37.7801 237.95 37.8662 238.467 37.8662C239.096 37.8662 239.59 37.7801 239.949 37.6079C240.316 37.4357 240.5 37.1737 240.5 36.8218C240.5 36.5972 240.417 36.41 240.252 36.2603C240.088 36.1105 239.874 35.9795 239.612 35.8672C239.358 35.7549 239.077 35.6538 238.77 35.564C238.463 35.4741 238.167 35.373 237.883 35.2607C237.426 35.0885 237.022 34.9051 236.67 34.7104C236.326 34.5083 236.034 34.2762 235.794 34.0142C235.562 33.7521 235.382 33.4489 235.255 33.1045C235.135 32.7601 235.075 32.3521 235.075 31.8804C235.075 31.2365 235.214 30.6825 235.491 30.2183C235.775 29.7541 236.15 29.376 236.614 29.084C237.085 28.7845 237.621 28.5674 238.22 28.4326C238.826 28.2904 239.455 28.2192 240.106 28.2192C240.616 28.2192 241.132 28.2604 241.656 28.3428C242.18 28.4176 242.697 28.5299 243.206 28.6797V31.4199C242.757 31.1579 242.274 30.9632 241.757 30.8359C241.248 30.7012 240.747 30.6338 240.252 30.6338C240.02 30.6338 239.799 30.6562 239.59 30.7012C239.388 30.7386 239.208 30.7985 239.051 30.8809C238.894 30.9557 238.77 31.0568 238.68 31.1841C238.59 31.3039 238.545 31.4424 238.545 31.5996C238.545 31.8092 238.613 31.9889 238.748 32.1387C238.882 32.2884 239.058 32.4194 239.275 32.5317C239.493 32.6366 239.732 32.7339 239.994 32.8237C240.264 32.9061 240.529 32.9922 240.792 33.082C241.263 33.2467 241.69 33.4264 242.072 33.6211C242.454 33.8158 242.779 34.0441 243.049 34.3062C243.326 34.5682 243.535 34.8752 243.678 35.2271C243.827 35.5789 243.902 35.9982 243.902 36.4849C243.902 37.1662 243.753 37.7502 243.453 38.2368C243.161 38.716 242.768 39.109 242.274 39.416C241.787 39.7155 241.222 39.9326 240.578 40.0674C239.942 40.2096 239.279 40.2808 238.59 40.2808C237.325 40.2808 236.153 40.0861 235.075 39.6968ZM256.997 40H253.459V33.4639C253.459 31.7793 252.846 30.937 251.618 30.937C250.989 30.937 250.48 31.1729 250.09 31.6445C249.701 32.1162 249.506 32.7152 249.506 33.4414V40H245.958V22.9746H249.506V30.207H249.551C250.42 28.8818 251.599 28.2192 253.089 28.2192C255.694 28.2192 256.997 29.7915 256.997 32.936V40ZM263.41 38.6636H263.365V40H259.816V22.9746H263.365V30.2295H263.41C264.286 28.8893 265.532 28.2192 267.149 28.2192C268.632 28.2192 269.774 28.7284 270.575 29.7466C271.376 30.7648 271.776 32.1574 271.776 33.9243C271.776 35.841 271.308 37.3796 270.373 38.54C269.437 39.7005 268.186 40.2808 266.622 40.2808C265.207 40.2808 264.136 39.7417 263.41 38.6636ZM263.309 33.812V34.9912C263.309 35.7324 263.522 36.3464 263.949 36.833C264.375 37.3197 264.922 37.563 265.588 37.563C266.397 37.563 267.022 37.2523 267.464 36.6309C267.913 36.002 268.138 35.1147 268.138 33.9692C268.138 33.0184 267.932 32.2772 267.52 31.7456C267.116 31.2065 266.535 30.937 265.779 30.937C265.068 30.937 264.477 31.2028 264.005 31.7344C263.541 32.266 263.309 32.9585 263.309 33.812ZM279.559 40.2808C277.642 40.2808 276.134 39.7454 275.033 38.6748C273.94 37.5967 273.394 36.1367 273.394 34.2949C273.394 32.3932 273.963 30.9071 275.101 29.8364C276.239 28.7583 277.777 28.2192 279.716 28.2192C281.625 28.2192 283.123 28.7583 284.208 29.8364C285.294 30.9071 285.837 32.3258 285.837 34.0928C285.837 36.002 285.275 37.5106 284.152 38.6187C283.037 39.7267 281.506 40.2808 279.559 40.2808ZM279.649 30.937C278.81 30.937 278.159 31.2253 277.695 31.8018C277.231 32.3783 276.999 33.1943 276.999 34.25C276.999 36.4587 277.889 37.563 279.671 37.563C281.371 37.563 282.221 36.4287 282.221 34.1602C282.221 32.0114 281.363 30.937 279.649 30.937ZM297.483 40H294.125V38.3491H294.08C293.309 39.6369 292.167 40.2808 290.655 40.2808C289.539 40.2808 288.66 39.9663 288.016 39.3374C287.379 38.701 287.061 37.855 287.061 36.7993C287.061 34.5682 288.382 33.2804 291.025 32.936L294.147 32.5205C294.147 31.2627 293.466 30.6338 292.104 30.6338C290.733 30.6338 289.431 31.0418 288.195 31.8579V29.1851C288.689 28.9305 289.363 28.7059 290.217 28.5112C291.078 28.3166 291.86 28.2192 292.564 28.2192C295.843 28.2192 297.483 29.8551 297.483 33.127V40ZM294.147 35.3281V34.5532L292.059 34.8228C290.906 34.9725 290.329 35.4928 290.329 36.3838C290.329 36.7881 290.468 37.1213 290.745 37.3833C291.029 37.6379 291.411 37.7651 291.89 37.7651C292.556 37.7651 293.099 37.5368 293.519 37.0801C293.938 36.6159 294.147 36.0319 294.147 35.3281ZM307.792 31.7007C307.366 31.4686 306.868 31.3525 306.299 31.3525C305.528 31.3525 304.925 31.637 304.491 32.2061C304.056 32.7676 303.839 33.535 303.839 34.5083V40H300.291V28.5H303.839V30.6338H303.884C304.446 29.0765 305.457 28.2979 306.917 28.2979C307.291 28.2979 307.583 28.3428 307.792 28.4326V31.7007ZM320.618 40H317.069V38.4165H317.024C316.215 39.6593 315.029 40.2808 313.464 40.2808C312.026 40.2808 310.87 39.7754 309.994 38.7646C309.118 37.7464 308.68 36.3276 308.68 34.5083C308.68 32.6066 309.163 31.083 310.128 29.9375C311.094 28.792 312.36 28.2192 313.924 28.2192C315.407 28.2192 316.44 28.7508 317.024 29.814H317.069V22.9746H320.618V40ZM317.136 34.4072V33.5425C317.136 32.7938 316.919 32.1724 316.485 31.6782C316.051 31.1841 315.485 30.937 314.789 30.937C314.003 30.937 313.389 31.2477 312.947 31.8691C312.506 32.4831 312.285 33.3291 312.285 34.4072C312.285 35.418 312.498 36.1966 312.925 36.7432C313.352 37.2897 313.943 37.563 314.699 37.563C315.418 37.563 316.002 37.2747 316.451 36.6982C316.908 36.1217 317.136 35.3581 317.136 34.4072ZM339.9 40H330.31V23.8955H333.937V37.0576H339.9V40ZM347.211 40.2808C345.295 40.2808 343.786 39.7454 342.686 38.6748C341.592 37.5967 341.046 36.1367 341.046 34.2949C341.046 32.3932 341.615 30.9071 342.753 29.8364C343.891 28.7583 345.43 28.2192 347.369 28.2192C349.278 28.2192 350.775 28.7583 351.861 29.8364C352.946 30.9071 353.489 32.3258 353.489 34.0928C353.489 36.002 352.928 37.5106 351.805 38.6187C350.689 39.7267 349.158 40.2808 347.211 40.2808ZM347.301 30.937C346.463 30.937 345.811 31.2253 345.347 31.8018C344.883 32.3783 344.651 33.1943 344.651 34.25C344.651 36.4587 345.542 37.563 347.324 37.563C349.023 37.563 349.873 36.4287 349.873 34.1602C349.873 32.0114 349.016 30.937 347.301 30.937ZM367.067 38.686C367.067 40.8198 366.449 42.4707 365.214 43.6387C363.979 44.8141 362.189 45.4019 359.846 45.4019C358.296 45.4019 357.068 45.181 356.162 44.7393V41.752C357.345 42.4408 358.539 42.7852 359.745 42.7852C360.943 42.7852 361.871 42.467 362.53 41.8306C363.189 41.2017 363.518 40.3444 363.518 39.2588V38.3491H363.473C362.665 39.6369 361.47 40.2808 359.891 40.2808C358.423 40.2808 357.259 39.7642 356.398 38.731C355.537 37.6978 355.106 36.3127 355.106 34.5757C355.106 32.6291 355.586 31.083 356.544 29.9375C357.502 28.792 358.764 28.2192 360.329 28.2192C361.729 28.2192 362.777 28.7583 363.473 29.8364H363.518V28.5H367.067V38.686ZM363.563 34.4746V33.5649C363.563 32.8387 363.346 32.221 362.912 31.7119C362.485 31.1953 361.927 30.937 361.238 30.937C360.452 30.937 359.834 31.244 359.385 31.8579C358.936 32.4718 358.711 33.3366 358.711 34.4521C358.711 35.4105 358.925 36.1704 359.352 36.7319C359.778 37.286 360.362 37.563 361.104 37.563C361.837 37.563 362.429 37.2822 362.878 36.7207C363.335 36.1517 363.563 35.403 363.563 34.4746ZM373.581 40H370.032V28.5H373.581V40ZM375.411 23.0532L371.896 26.6807H369.335L372.255 23.0532H375.411ZM375.815 39.6968V36.8218C376.399 37.1737 376.98 37.4357 377.556 37.6079C378.14 37.7801 378.69 37.8662 379.207 37.8662C379.836 37.8662 380.33 37.7801 380.689 37.6079C381.056 37.4357 381.24 37.1737 381.24 36.8218C381.24 36.5972 381.157 36.41 380.993 36.2603C380.828 36.1105 380.615 35.9795 380.353 35.8672C380.098 35.7549 379.817 35.6538 379.51 35.564C379.203 35.4741 378.908 35.373 378.623 35.2607C378.166 35.0885 377.762 34.9051 377.41 34.7104C377.066 34.5083 376.774 34.2762 376.534 34.0142C376.302 33.7521 376.122 33.4489 375.995 33.1045C375.875 32.7601 375.815 32.3521 375.815 31.8804C375.815 31.2365 375.954 30.6825 376.231 30.2183C376.515 29.7541 376.89 29.376 377.354 29.084C377.826 28.7845 378.361 28.5674 378.96 28.4326C379.566 28.2904 380.195 28.2192 380.847 28.2192C381.356 28.2192 381.872 28.2604 382.396 28.3428C382.921 28.4176 383.437 28.5299 383.946 28.6797V31.4199C383.497 31.1579 383.014 30.9632 382.498 30.8359C381.988 30.7012 381.487 30.6338 380.993 30.6338C380.761 30.6338 380.54 30.6562 380.33 30.7012C380.128 30.7386 379.948 30.7985 379.791 30.8809C379.634 30.9557 379.51 31.0568 379.42 31.1841C379.331 31.3039 379.286 31.4424 379.286 31.5996C379.286 31.8092 379.353 31.9889 379.488 32.1387C379.623 32.2884 379.799 32.4194 380.016 32.5317C380.233 32.6366 380.472 32.7339 380.734 32.8237C381.004 32.9061 381.27 32.9922 381.532 33.082C382.003 33.2467 382.43 33.4264 382.812 33.6211C383.194 33.8158 383.52 34.0441 383.789 34.3062C384.066 34.5682 384.276 34.8752 384.418 35.2271C384.568 35.5789 384.643 35.9982 384.643 36.4849C384.643 37.1662 384.493 37.7502 384.193 38.2368C383.901 38.716 383.508 39.109 383.014 39.416C382.528 39.7155 381.962 39.9326 381.318 40.0674C380.682 40.2096 380.019 40.2808 379.331 40.2808C378.065 40.2808 376.894 40.0861 375.815 39.6968ZM393.649 39.8652C393.125 40.1423 392.335 40.2808 391.28 40.2808C388.779 40.2808 387.529 38.9818 387.529 36.3838V31.1167H385.665V28.5H387.529V26.0181L391.066 25.0073V28.5H393.649V31.1167H391.066V35.7661C391.066 36.964 391.542 37.563 392.493 37.563C392.867 37.563 393.253 37.4544 393.649 37.2373V39.8652ZM397.457 26.6807C396.858 26.6807 396.367 26.5047 395.985 26.1528C395.604 25.7935 395.413 25.3555 395.413 24.8389C395.413 24.3073 395.604 23.873 395.985 23.5361C396.367 23.1992 396.858 23.0308 397.457 23.0308C398.063 23.0308 398.553 23.1992 398.928 23.5361C399.31 23.873 399.5 24.3073 399.5 24.8389C399.5 25.3779 399.31 25.8197 398.928 26.1641C398.553 26.5085 398.063 26.6807 397.457 26.6807ZM399.208 40H395.66V28.5H399.208V40ZM410.911 39.5845C410.11 40.0487 408.953 40.2808 407.44 40.2808C405.674 40.2808 404.243 39.7454 403.15 38.6748C402.057 37.6042 401.511 36.2228 401.511 34.5308C401.511 32.5767 402.095 31.0381 403.263 29.915C404.438 28.7845 406.007 28.2192 407.968 28.2192C409.323 28.2192 410.304 28.3989 410.911 28.7583V31.7681C410.169 31.214 409.342 30.937 408.429 30.937C407.41 30.937 406.602 31.2365 406.003 31.8354C405.411 32.4269 405.116 33.2467 405.116 34.2949C405.116 35.3132 405.4 36.1143 405.969 36.6982C406.538 37.2747 407.321 37.563 408.316 37.563C409.2 37.563 410.065 37.286 410.911 36.7319V39.5845ZM422.815 40H419.457V38.3491H419.412C418.641 39.6369 417.499 40.2808 415.987 40.2808C414.871 40.2808 413.992 39.9663 413.348 39.3374C412.711 38.701 412.393 37.855 412.393 36.7993C412.393 34.5682 413.715 33.2804 416.357 32.936L419.479 32.5205C419.479 31.2627 418.798 30.6338 417.436 30.6338C416.065 30.6338 414.763 31.0418 413.527 31.8579V29.1851C414.021 28.9305 414.695 28.7059 415.549 28.5112C416.41 28.3166 417.192 28.2192 417.896 28.2192C421.175 28.2192 422.815 29.8551 422.815 33.127V40ZM419.479 35.3281V34.5532L417.391 34.8228C416.238 34.9725 415.661 35.4928 415.661 36.3838C415.661 36.7881 415.8 37.1213 416.077 37.3833C416.361 37.6379 416.743 37.7651 417.222 37.7651C417.889 37.7651 418.431 37.5368 418.851 37.0801C419.27 36.6159 419.479 36.0319 419.479 35.3281Z" fill="white"/>
<line y1="65" x2="1280" y2="65" stroke="white" stroke-width="2"/>
<g filter="url(#filter1_d_26_6)">
<rect x="989" y="84" width="273" height="618" rx="10" fill="url(#paint1_linear_26_6)"/>
</g>
<g filter="url(#filter2_d_26_6)">
<rect x="281" y="484" width="336" height="218" rx="10" fill="white"/>
</g>
<g filter="url(#filter3_d_26_6)">
<rect x="635" y="484" width="336" height="218" rx="10" fill="white"/>
</g>
<g filter="url(#filter4_d_26_6)">
<rect x="281" y="316" width="690" height="150" rx="10" fill="white"/>
</g>
<g filter="url(#filter5_d_26_6)">
<rect x="281" y="84" width="690" height="214" rx="10" fill="white"/>
</g>
<g filter="url(#filter6_d_26_6)">
<rect x="18" y="101" width="245" height="131" rx="10" fill="url(#paint2_linear_26_6)"/>
</g>
<g filter="url(#filter7_d_26_6)">
<rect x="18" y="101" width="245" height="131" rx="10" fill="url(#paint3_linear_26_6)"/>
</g>
<mask id="mask0_26_6" style="mask-type:alpha" maskUnits="userSpaceOnUse" x="11" y="142" width="429" height="90">
<path fill-rule="evenodd" clip-rule="evenodd" d="M11 206.286L28.875 208.429C46.75 210.571 82.5 214.857 118.25 202C154 189.143 189.75 159.143 225.5 148.429C261.25 137.714 297 146.286 332.75 148.429C368.5 150.571 404.25 146.286 422.125 144.143L440 142V232H422.125C404.25 232 368.5 232 332.75 232C297 232 261.25 232 225.5 232C189.75 232 154 232 118.25 232C82.5 232 46.75 232 28.875 232H11V206.286Z" fill="#5E46B3"/>
</mask>
<g mask="url(#mask0_26_6)">
<rect x="18" y="101" width="245" height="131" rx="10" fill="#5E46B3"/>
</g>
<g filter="url(#filter8_d_26_6)">
<rect x="18" y="254" width="245" height="131" rx="10" fill="url(#paint4_linear_26_6)"/>
</g>
<g filter="url(#filter9_d_26_6)">
<rect x="18" y="254" width="245" height="131" rx="10" fill="url(#paint5_linear_26_6)"/>
</g>
<mask id="mask1_26_6" style="mask-type:alpha" maskUnits="userSpaceOnUse" x="11" y="295" width="429" height="90">
<path fill-rule="evenodd" clip-rule="evenodd" d="M11 359.286L28.875 361.429C46.75 363.571 82.5 367.857 118.25 355C154 342.143 189.75 312.143 225.5 301.429C261.25 290.714 297 299.286 332.75 301.429C368.5 303.571 404.25 299.286 422.125 297.143L440 295V385H422.125C404.25 385 368.5 385 332.75 385C297 385 261.25 385 225.5 385C189.75 385 154 385 118.25 385C82.5 385 46.75 385 28.875 385H11V359.286Z" fill="#4877B3"/>
</mask>
<g mask="url(#mask1_26_6)">
<rect x="18" y="254" width="245" height="131" rx="10" fill="#4877B3"/>
</g>
<g filter="url(#filter10_d_26_6)">
<rect x="18" y="407" width="245" height="131" rx="10" fill="url(#paint6_linear_26_6)"/>
</g>
<g filter="url(#filter11_d_26_6)">
<rect x="18" y="407" width="245" height="131" rx="10" fill="url(#paint7_linear_26_6)"/>
</g>
<mask id="mask2_26_6" style="mask-type:alpha" maskUnits="userSpaceOnUse" x="11" y="448" width="429" height="90">
<path fill-rule="evenodd" clip-rule="evenodd" d="M11 512.286L28.875 514.429C46.75 516.571 82.5 520.857 118.25 508C154 495.143 189.75 465.143 225.5 454.429C261.25 443.714 297 452.286 332.75 454.429C368.5 456.571 404.25 452.286 422.125 450.143L440 448V538H422.125C404.25 538 368.5 538 332.75 538C297 538 261.25 538 225.5 538C189.75 538 154 538 118.25 538C82.5 538 46.75 538 28.875 538H11V512.286Z" fill="#5ABDC0"/>
</mask>
<g mask="url(#mask2_26_6)">
<rect x="18" y="407" width="245" height="131" rx="10" fill="#5ABDC0"/>
</g>
<g filter="url(#filter12_d_26_6)">
<rect x="18" y="560" width="245" height="131" rx="10" fill="url(#paint8_linear_26_6)"/>
</g>
<g filter="url(#filter13_d_26_6)">
<rect x="18" y="560" width="245" height="131" rx="10" fill="url(#paint9_linear_26_6)"/>
</g>
<mask id="mask3_26_6" style="mask-type:alpha" maskUnits="userSpaceOnUse" x="11" y="601" width="429" height="90">
<path fill-rule="evenodd" clip-rule="evenodd" d="M11 665.286L28.875 667.429C46.75 669.571 82.5 673.857 118.25 661C154 648.143 189.75 618.143 225.5 607.429C261.25 596.714 297 605.286 332.75 607.429C368.5 609.571 404.25 605.286 422.125 603.143L440 601V691H422.125C404.25 691 368.5 691 332.75 691C297 691 261.25 691 225.5 691C189.75 691 154 691 118.25 691C82.5 691 46.75 691 28.875 691H11V665.286Z" fill="#C97257"/>
</mask>
<g mask="url(#mask3_26_6)">
<rect x="18" y="560" width="245" height="131" rx="10" fill="#C97257"/>
</g>
<line x1="185.5" y1="15" x2="185.5" y2="52" stroke="white" stroke-width="3"/>
<path d="M41.0122 127H38.2949L36.6616 124.297C36.5396 124.092 36.4224 123.909 36.3101 123.748C36.1978 123.587 36.083 123.45 35.9658 123.338C35.8535 123.221 35.7339 123.133 35.6069 123.074C35.4849 123.011 35.3506 122.979 35.2041 122.979H34.5669V127H32.2012V116.497H35.9512C38.5 116.497 39.7744 117.449 39.7744 119.354C39.7744 119.72 39.7183 120.059 39.606 120.372C39.4937 120.679 39.335 120.958 39.1299 121.207C38.9248 121.456 38.6758 121.67 38.3828 121.851C38.0947 122.032 37.7725 122.173 37.416 122.276V122.305C37.5723 122.354 37.7236 122.435 37.8701 122.547C38.0166 122.654 38.1582 122.781 38.2949 122.928C38.4316 123.074 38.561 123.233 38.6831 123.404C38.8101 123.57 38.9248 123.733 39.0273 123.895L41.0122 127ZM34.5669 118.27V121.192H35.5923C36.1001 121.192 36.5078 121.045 36.8154 120.752C37.1279 120.455 37.2842 120.086 37.2842 119.646C37.2842 118.729 36.7349 118.27 35.6362 118.27H34.5669ZM48.1313 123.909H43.2388C43.3169 124.998 44.0029 125.542 45.2969 125.542C46.1221 125.542 46.8472 125.347 47.4722 124.957V126.626C46.7788 126.998 45.8779 127.183 44.7695 127.183C43.5586 127.183 42.6187 126.849 41.9497 126.18C41.2808 125.506 40.9463 124.568 40.9463 123.367C40.9463 122.122 41.3076 121.136 42.0303 120.408C42.7529 119.681 43.6416 119.317 44.6963 119.317C45.79 119.317 46.6348 119.642 47.2305 120.291C47.8311 120.94 48.1313 121.822 48.1313 122.935V123.909ZM45.9854 122.488C45.9854 121.414 45.5508 120.877 44.6816 120.877C44.3105 120.877 43.9883 121.031 43.7148 121.338C43.4463 121.646 43.2827 122.029 43.2241 122.488H45.9854ZM55.1919 126.729C54.6694 127.032 53.915 127.183 52.9287 127.183C51.7764 127.183 50.8438 126.834 50.1309 126.136C49.418 125.438 49.0615 124.537 49.0615 123.433C49.0615 122.159 49.4424 121.155 50.2041 120.423C50.9707 119.686 51.9937 119.317 53.2729 119.317C54.1567 119.317 54.7964 119.434 55.1919 119.668V121.631C54.7085 121.27 54.1689 121.089 53.5732 121.089C52.9092 121.089 52.3818 121.285 51.9912 121.675C51.6055 122.061 51.4126 122.596 51.4126 123.279C51.4126 123.943 51.5981 124.466 51.9692 124.847C52.3403 125.223 52.8506 125.411 53.5 125.411C54.0762 125.411 54.6401 125.23 55.1919 124.869V126.729ZM63.4536 123.909H58.561C58.6392 124.998 59.3252 125.542 60.6191 125.542C61.4443 125.542 62.1694 125.347 62.7944 124.957V126.626C62.1011 126.998 61.2002 127.183 60.0918 127.183C58.8809 127.183 57.9409 126.849 57.272 126.18C56.603 125.506 56.2686 124.568 56.2686 123.367C56.2686 122.122 56.6299 121.136 57.3525 120.408C58.0752 119.681 58.9639 119.317 60.0186 119.317C61.1123 119.317 61.957 119.642 62.5527 120.291C63.1533 120.94 63.4536 121.822 63.4536 122.935V123.909ZM61.3076 122.488C61.3076 121.414 60.873 120.877 60.0039 120.877C59.6328 120.877 59.3105 121.031 59.0371 121.338C58.7686 121.646 58.605 122.029 58.5464 122.488H61.3076ZM66.0024 118.313C65.6118 118.313 65.292 118.199 65.043 117.969C64.7939 117.735 64.6694 117.449 64.6694 117.112C64.6694 116.766 64.7939 116.482 65.043 116.263C65.292 116.043 65.6118 115.933 66.0024 115.933C66.3979 115.933 66.7178 116.043 66.9619 116.263C67.2109 116.482 67.3354 116.766 67.3354 117.112C67.3354 117.464 67.2109 117.752 66.9619 117.977C66.7178 118.201 66.3979 118.313 66.0024 118.313ZM67.145 127H64.8306V119.5H67.145V127ZM73.627 126.912C73.2852 127.093 72.77 127.183 72.0815 127.183C70.4507 127.183 69.6353 126.336 69.6353 124.642V121.207H68.4194V119.5H69.6353V117.881L71.9424 117.222V119.5H73.627V121.207H71.9424V124.239C71.9424 125.02 72.2524 125.411 72.8726 125.411C73.1167 125.411 73.3682 125.34 73.627 125.198V126.912ZM81.1782 127H78.9883V125.923H78.959C78.4561 126.763 77.7114 127.183 76.7251 127.183C75.9976 127.183 75.4238 126.978 75.0039 126.568C74.5889 126.153 74.3813 125.601 74.3813 124.913C74.3813 123.458 75.2432 122.618 76.9668 122.393L79.0029 122.122C79.0029 121.302 78.5586 120.892 77.6699 120.892C76.7764 120.892 75.9268 121.158 75.1211 121.69V119.947C75.4434 119.781 75.8828 119.634 76.4395 119.507C77.001 119.38 77.5112 119.317 77.9702 119.317C80.1089 119.317 81.1782 120.384 81.1782 122.518V127ZM79.0029 123.953V123.448L77.6406 123.624C76.8887 123.721 76.5127 124.061 76.5127 124.642C76.5127 124.905 76.603 125.123 76.7837 125.293C76.9692 125.459 77.2183 125.542 77.5308 125.542C77.9653 125.542 78.3193 125.394 78.5928 125.096C78.8662 124.793 79.0029 124.412 79.0029 123.953ZM87.3818 127V116.497H91.2051C92.377 116.497 93.2778 116.712 93.9077 117.142C94.5376 117.571 94.8525 118.177 94.8525 118.958C94.8525 119.524 94.6597 120.02 94.2739 120.445C93.8931 120.87 93.4048 121.165 92.8091 121.331V121.36C93.5562 121.453 94.1519 121.729 94.5962 122.188C95.0454 122.647 95.27 123.206 95.27 123.865C95.27 124.827 94.9258 125.591 94.2373 126.158C93.5488 126.719 92.6089 127 91.4175 127H87.3818ZM89.7476 118.24V120.73H90.7876C91.2759 120.73 91.6592 120.613 91.9375 120.379C92.2207 120.14 92.3623 119.812 92.3623 119.397C92.3623 118.626 91.7861 118.24 90.6338 118.24H89.7476ZM89.7476 122.488V125.257H91.0293C91.5762 125.257 92.0034 125.13 92.311 124.876C92.6235 124.622 92.7798 124.275 92.7798 123.836C92.7798 123.416 92.626 123.086 92.3184 122.847C92.0156 122.608 91.5908 122.488 91.0439 122.488H89.7476ZM101.671 121.587C101.393 121.436 101.068 121.36 100.697 121.36C100.194 121.36 99.8013 121.546 99.5181 121.917C99.2349 122.283 99.0933 122.784 99.0933 123.418V127H96.7788V119.5H99.0933V120.892H99.1226C99.4888 119.876 100.148 119.368 101.1 119.368C101.344 119.368 101.535 119.397 101.671 119.456V121.587ZM109.926 127H107.619V125.857H107.582C107.011 126.741 106.247 127.183 105.29 127.183C103.551 127.183 102.682 126.131 102.682 124.026V119.5H104.989V123.821C104.989 124.881 105.409 125.411 106.249 125.411C106.664 125.411 106.996 125.267 107.245 124.979C107.494 124.686 107.619 124.29 107.619 123.792V119.5H109.926V127ZM116.415 126.912C116.073 127.093 115.558 127.183 114.87 127.183C113.239 127.183 112.423 126.336 112.423 124.642V121.207H111.208V119.5H112.423V117.881L114.73 117.222V119.5H116.415V121.207H114.73V124.239C114.73 125.02 115.041 125.411 115.661 125.411C115.905 125.411 116.156 125.34 116.415 125.198V126.912ZM123.966 127H121.776V125.923H121.747C121.244 126.763 120.5 127.183 119.513 127.183C118.786 127.183 118.212 126.978 117.792 126.568C117.377 126.153 117.169 125.601 117.169 124.913C117.169 123.458 118.031 122.618 119.755 122.393L121.791 122.122C121.791 121.302 121.347 120.892 120.458 120.892C119.564 120.892 118.715 121.158 117.909 121.69V119.947C118.231 119.781 118.671 119.634 119.228 119.507C119.789 119.38 120.299 119.317 120.758 119.317C122.897 119.317 123.966 120.384 123.966 122.518V127ZM121.791 123.953V123.448L120.429 123.624C119.677 123.721 119.301 124.061 119.301 124.642C119.301 124.905 119.391 125.123 119.572 125.293C119.757 125.459 120.006 125.542 120.319 125.542C120.753 125.542 121.107 125.394 121.381 125.096C121.654 124.793 121.791 124.412 121.791 123.953Z" fill="white"/>
<path d="M34.5669 276.382V280H32.2012V269.497H35.9072C38.5537 269.497 39.877 270.613 39.877 272.844C39.877 273.899 39.4961 274.753 38.7344 275.408C37.9775 276.057 36.9644 276.382 35.6948 276.382H34.5669ZM34.5669 271.313V274.587H35.4971C36.7568 274.587 37.3867 274.036 37.3867 272.932C37.3867 271.853 36.7568 271.313 35.4971 271.313H34.5669ZM47.4722 276.909H42.5796C42.6577 277.998 43.3438 278.542 44.6377 278.542C45.4629 278.542 46.188 278.347 46.813 277.957V279.626C46.1196 279.998 45.2188 280.183 44.1104 280.183C42.8994 280.183 41.9595 279.849 41.2905 279.18C40.6216 278.506 40.2871 277.568 40.2871 276.367C40.2871 275.122 40.6484 274.136 41.3711 273.408C42.0938 272.681 42.9824 272.317 44.0371 272.317C45.1309 272.317 45.9756 272.642 46.5713 273.291C47.1719 273.94 47.4722 274.822 47.4722 275.935V276.909ZM45.3262 275.488C45.3262 274.414 44.8916 273.877 44.0225 273.877C43.6514 273.877 43.3291 274.031 43.0557 274.338C42.7871 274.646 42.6235 275.029 42.5649 275.488H45.3262ZM56.188 280H53.8735V278.967H53.8442C53.3169 279.778 52.543 280.183 51.5225 280.183C50.585 280.183 49.8306 279.854 49.2593 279.194C48.688 278.53 48.4023 277.605 48.4023 276.418C48.4023 275.178 48.7173 274.185 49.3472 273.438C49.9771 272.69 50.8022 272.317 51.8228 272.317C52.7896 272.317 53.4634 272.664 53.8442 273.357H53.8735V268.896H56.188V280ZM53.9175 276.353V275.789C53.9175 275.3 53.7759 274.895 53.4927 274.573C53.2095 274.25 52.8408 274.089 52.3867 274.089C51.874 274.089 51.4736 274.292 51.1855 274.697C50.8975 275.098 50.7534 275.649 50.7534 276.353C50.7534 277.012 50.8926 277.52 51.1709 277.876C51.4492 278.232 51.835 278.411 52.3281 278.411C52.7969 278.411 53.1777 278.223 53.4707 277.847C53.7686 277.471 53.9175 276.973 53.9175 276.353ZM59.3081 271.313C58.9175 271.313 58.5977 271.199 58.3486 270.969C58.0996 270.735 57.9751 270.449 57.9751 270.112C57.9751 269.766 58.0996 269.482 58.3486 269.263C58.5977 269.043 58.9175 268.933 59.3081 268.933C59.7036 268.933 60.0234 269.043 60.2676 269.263C60.5166 269.482 60.6411 269.766 60.6411 270.112C60.6411 270.464 60.5166 270.752 60.2676 270.977C60.0234 271.201 59.7036 271.313 59.3081 271.313ZM60.4507 280H58.1362V272.5H60.4507V280ZM69.7378 280H67.4233V278.967H67.394C66.8667 279.778 66.0928 280.183 65.0723 280.183C64.1348 280.183 63.3804 279.854 62.8091 279.194C62.2378 278.53 61.9521 277.605 61.9521 276.418C61.9521 275.178 62.2671 274.185 62.897 273.438C63.5269 272.69 64.3521 272.317 65.3726 272.317C66.3394 272.317 67.0132 272.664 67.394 273.357H67.4233V268.896H69.7378V280ZM67.4673 276.353V275.789C67.4673 275.3 67.3257 274.895 67.0425 274.573C66.7593 274.25 66.3906 274.089 65.9365 274.089C65.4238 274.089 65.0234 274.292 64.7354 274.697C64.4473 275.098 64.3032 275.649 64.3032 276.353C64.3032 277.012 64.4424 277.52 64.7207 277.876C64.999 278.232 65.3848 278.411 65.8779 278.411C66.3467 278.411 66.7275 278.223 67.0205 277.847C67.3184 277.471 67.4673 276.973 67.4673 276.353ZM75.2603 280.183C74.0103 280.183 73.0264 279.834 72.3086 279.136C71.5957 278.433 71.2393 277.48 71.2393 276.279C71.2393 275.039 71.6104 274.07 72.3525 273.372C73.0947 272.668 74.0981 272.317 75.3628 272.317C76.6079 272.317 77.5845 272.668 78.2925 273.372C79.0005 274.07 79.3545 274.995 79.3545 276.147C79.3545 277.393 78.9883 278.376 78.2559 279.099C77.5283 279.822 76.5298 280.183 75.2603 280.183ZM75.3188 274.089C74.772 274.089 74.3472 274.277 74.0444 274.653C73.7417 275.029 73.5903 275.562 73.5903 276.25C73.5903 277.69 74.1714 278.411 75.3335 278.411C76.4419 278.411 76.9961 277.671 76.9961 276.191C76.9961 274.79 76.437 274.089 75.3188 274.089ZM80.3652 279.802V277.927C80.7461 278.157 81.1245 278.328 81.5005 278.44C81.8813 278.552 82.2402 278.608 82.5771 278.608C82.9873 278.608 83.3096 278.552 83.5439 278.44C83.7832 278.328 83.9028 278.157 83.9028 277.927C83.9028 277.781 83.8491 277.659 83.7417 277.561C83.6343 277.463 83.4951 277.378 83.3242 277.305C83.1582 277.231 82.9751 277.166 82.7749 277.107C82.5747 277.048 82.3818 276.982 82.1963 276.909C81.8984 276.797 81.6348 276.677 81.4053 276.55C81.1807 276.418 80.9902 276.267 80.834 276.096C80.6826 275.925 80.5654 275.728 80.4824 275.503C80.4043 275.278 80.3652 275.012 80.3652 274.705C80.3652 274.285 80.4556 273.923 80.6362 273.621C80.8218 273.318 81.0659 273.071 81.3687 272.881C81.6763 272.686 82.0254 272.544 82.416 272.456C82.8115 272.363 83.2217 272.317 83.6465 272.317C83.9785 272.317 84.3154 272.344 84.6572 272.397C84.999 272.446 85.3359 272.52 85.668 272.617V274.404C85.375 274.233 85.0601 274.106 84.7231 274.023C84.3911 273.936 84.064 273.892 83.7417 273.892C83.5903 273.892 83.4463 273.906 83.3096 273.936C83.1777 273.96 83.0605 273.999 82.958 274.053C82.8555 274.102 82.7749 274.167 82.7163 274.25C82.6577 274.329 82.6284 274.419 82.6284 274.521C82.6284 274.658 82.6724 274.775 82.7603 274.873C82.8481 274.971 82.9629 275.056 83.1045 275.129C83.2461 275.198 83.4023 275.261 83.5732 275.32C83.749 275.374 83.9224 275.43 84.0933 275.488C84.4009 275.596 84.6792 275.713 84.9282 275.84C85.1772 275.967 85.3896 276.116 85.5654 276.287C85.7461 276.458 85.8828 276.658 85.9756 276.887C86.0732 277.117 86.1221 277.39 86.1221 277.708C86.1221 278.152 86.0244 278.533 85.8291 278.85C85.6387 279.163 85.3823 279.419 85.0601 279.619C84.7427 279.814 84.374 279.956 83.9541 280.044C83.5391 280.137 83.1069 280.183 82.6577 280.183C81.8325 280.183 81.0684 280.056 80.3652 279.802Z" fill="white"/>
<path d="M38.5 433H32.2012V422.497H38.2583V424.423H34.5669V426.76H38.002V428.679H34.5669V431.081H38.5V433ZM47.2012 433H44.894V428.833C44.894 427.67 44.479 427.089 43.6489 427.089C43.2485 427.089 42.9189 427.243 42.6602 427.551C42.4014 427.858 42.272 428.249 42.272 428.723V433H39.9575V425.5H42.272V426.687H42.3013C42.853 425.773 43.6562 425.317 44.7109 425.317C46.3711 425.317 47.2012 426.347 47.2012 428.408V433ZM53.5732 432.912C53.2314 433.093 52.7163 433.183 52.0278 433.183C50.397 433.183 49.5815 432.336 49.5815 430.642V427.207H48.3657V425.5H49.5815V423.881L51.8887 423.222V425.5H53.5732V427.207H51.8887V430.239C51.8887 431.02 52.1987 431.411 52.8188 431.411C53.063 431.411 53.3145 431.34 53.5732 431.198V432.912ZM59.7769 427.587C59.4985 427.436 59.1738 427.36 58.8027 427.36C58.2998 427.36 57.9067 427.546 57.6235 427.917C57.3403 428.283 57.1987 428.784 57.1987 429.418V433H54.8843V425.5H57.1987V426.892H57.228C57.5942 425.876 58.2534 425.368 59.2056 425.368C59.4497 425.368 59.6401 425.397 59.7769 425.456V427.587ZM67.5405 429.909H62.6479C62.7261 430.998 63.4121 431.542 64.7061 431.542C65.5312 431.542 66.2563 431.347 66.8813 430.957V432.626C66.188 432.998 65.2871 433.183 64.1787 433.183C62.9678 433.183 62.0278 432.849 61.3589 432.18C60.6899 431.506 60.3555 430.568 60.3555 429.367C60.3555 428.122 60.7168 427.136 61.4395 426.408C62.1621 425.681 63.0508 425.317 64.1055 425.317C65.1992 425.317 66.0439 425.642 66.6396 426.291C67.2402 426.94 67.5405 427.822 67.5405 428.935V429.909ZM65.3945 428.488C65.3945 427.414 64.96 426.877 64.0908 426.877C63.7197 426.877 63.3975 427.031 63.124 427.338C62.8555 427.646 62.6919 428.029 62.6333 428.488H65.3945ZM76.271 432.143C76.271 433.535 75.8682 434.611 75.0625 435.373C74.2568 436.14 73.0898 436.523 71.5615 436.523C70.5508 436.523 69.75 436.379 69.1592 436.091V434.143C69.9307 434.592 70.7095 434.816 71.4956 434.816C72.2769 434.816 72.8823 434.609 73.312 434.194C73.7417 433.784 73.9565 433.225 73.9565 432.517V431.923H73.9272C73.3999 432.763 72.6211 433.183 71.5908 433.183C70.6338 433.183 69.8745 432.846 69.313 432.172C68.7515 431.499 68.4707 430.595 68.4707 429.462C68.4707 428.193 68.7832 427.185 69.4082 426.438C70.0332 425.69 70.856 425.317 71.8765 425.317C72.7896 425.317 73.4731 425.668 73.9272 426.372H73.9565V425.5H76.271V432.143ZM73.9858 429.396V428.803C73.9858 428.33 73.8442 427.927 73.561 427.595C73.2827 427.258 72.9189 427.089 72.4697 427.089C71.957 427.089 71.5542 427.29 71.2612 427.69C70.9683 428.09 70.8218 428.654 70.8218 429.382C70.8218 430.007 70.9609 430.502 71.2393 430.869C71.5176 431.23 71.8984 431.411 72.3818 431.411C72.8604 431.411 73.2461 431.228 73.5391 430.861C73.8369 430.49 73.9858 430.002 73.9858 429.396ZM84.4448 433H82.2549V431.923H82.2256C81.7227 432.763 80.978 433.183 79.9917 433.183C79.2642 433.183 78.6904 432.978 78.2705 432.568C77.8555 432.153 77.6479 431.601 77.6479 430.913C77.6479 429.458 78.5098 428.618 80.2334 428.393L82.2695 428.122C82.2695 427.302 81.8252 426.892 80.9365 426.892C80.043 426.892 79.1934 427.158 78.3877 427.69V425.947C78.71 425.781 79.1494 425.634 79.7061 425.507C80.2676 425.38 80.7778 425.317 81.2368 425.317C83.3755 425.317 84.4448 426.384 84.4448 428.518V433ZM82.2695 429.953V429.448L80.9072 429.624C80.1553 429.721 79.7793 430.061 79.7793 430.642C79.7793 430.905 79.8696 431.123 80.0503 431.293C80.2358 431.459 80.4849 431.542 80.7974 431.542C81.2319 431.542 81.5859 431.394 81.8594 431.096C82.1328 430.793 82.2695 430.412 82.2695 429.953ZM85.7852 432.802V430.927C86.166 431.157 86.5444 431.328 86.9204 431.44C87.3013 431.552 87.6602 431.608 87.9971 431.608C88.4072 431.608 88.7295 431.552 88.9639 431.44C89.2031 431.328 89.3228 431.157 89.3228 430.927C89.3228 430.781 89.269 430.659 89.1616 430.561C89.0542 430.463 88.915 430.378 88.7441 430.305C88.5781 430.231 88.395 430.166 88.1948 430.107C87.9946 430.048 87.8018 429.982 87.6162 429.909C87.3184 429.797 87.0547 429.677 86.8252 429.55C86.6006 429.418 86.4102 429.267 86.2539 429.096C86.1025 428.925 85.9854 428.728 85.9023 428.503C85.8242 428.278 85.7852 428.012 85.7852 427.705C85.7852 427.285 85.8755 426.923 86.0562 426.621C86.2417 426.318 86.4858 426.071 86.7886 425.881C87.0962 425.686 87.4453 425.544 87.8359 425.456C88.2314 425.363 88.6416 425.317 89.0664 425.317C89.3984 425.317 89.7354 425.344 90.0771 425.397C90.4189 425.446 90.7559 425.52 91.0879 425.617V427.404C90.7949 427.233 90.48 427.106 90.1431 427.023C89.811 426.936 89.4839 426.892 89.1616 426.892C89.0103 426.892 88.8662 426.906 88.7295 426.936C88.5977 426.96 88.4805 426.999 88.3779 427.053C88.2754 427.102 88.1948 427.167 88.1362 427.25C88.0776 427.329 88.0483 427.419 88.0483 427.521C88.0483 427.658 88.0923 427.775 88.1802 427.873C88.2681 427.971 88.3828 428.056 88.5244 428.129C88.666 428.198 88.8223 428.261 88.9932 428.32C89.1689 428.374 89.3423 428.43 89.5132 428.488C89.8208 428.596 90.0991 428.713 90.3481 428.84C90.5972 428.967 90.8096 429.116 90.9854 429.287C91.166 429.458 91.3027 429.658 91.3955 429.887C91.4932 430.117 91.542 430.39 91.542 430.708C91.542 431.152 91.4443 431.533 91.249 431.85C91.0586 432.163 90.8022 432.419 90.48 432.619C90.1626 432.814 89.7939 432.956 89.374 433.044C88.959 433.137 88.5269 433.183 88.0776 433.183C87.2524 433.183 86.4883 433.056 85.7852 432.802ZM106.491 433H103.913L103.166 430.664H99.4302L98.6904 433H96.127L99.9502 422.497H102.755L106.491 433ZM102.624 428.847L101.496 425.317C101.413 425.053 101.354 424.738 101.32 424.372H101.261C101.237 424.68 101.176 424.985 101.078 425.288L99.9355 428.847H102.624ZM111.801 432.912C111.459 433.093 110.944 433.183 110.255 433.183C108.625 433.183 107.809 432.336 107.809 430.642V427.207H106.593V425.5H107.809V423.881L110.116 423.222V425.5H111.801V427.207H110.116V430.239C110.116 431.02 110.426 431.411 111.046 431.411C111.291 431.411 111.542 431.34 111.801 431.198V432.912ZM118.004 427.587C117.726 427.436 117.401 427.36 117.03 427.36C116.527 427.36 116.134 427.546 115.851 427.917C115.568 428.283 115.426 428.784 115.426 429.418V433H113.112V425.5H115.426V426.892H115.456C115.822 425.876 116.481 425.368 117.433 425.368C117.677 425.368 117.868 425.397 118.004 425.456V427.587ZM125.329 433H123.139V431.923H123.109C122.606 432.763 121.862 433.183 120.875 433.183C120.148 433.183 119.574 432.978 119.154 432.568C118.739 432.153 118.532 431.601 118.532 430.913C118.532 429.458 119.394 428.618 121.117 428.393L123.153 428.122C123.153 427.302 122.709 426.892 121.82 426.892C120.927 426.892 120.077 427.158 119.271 427.69V425.947C119.594 425.781 120.033 425.634 120.59 425.507C121.151 425.38 121.662 425.317 122.121 425.317C124.259 425.317 125.329 426.384 125.329 428.518V433ZM123.153 429.953V429.448L121.791 429.624C121.039 429.721 120.663 430.061 120.663 430.642C120.663 430.905 120.753 431.123 120.934 431.293C121.12 431.459 121.369 431.542 121.681 431.542C122.116 431.542 122.47 431.394 122.743 431.096C123.017 430.793 123.153 430.412 123.153 429.953ZM126.669 432.802V430.927C127.05 431.157 127.428 431.328 127.804 431.44C128.185 431.552 128.544 431.608 128.881 431.608C129.291 431.608 129.613 431.552 129.848 431.44C130.087 431.328 130.207 431.157 130.207 430.927C130.207 430.781 130.153 430.659 130.045 430.561C129.938 430.463 129.799 430.378 129.628 430.305C129.462 430.231 129.279 430.166 129.079 430.107C128.878 430.048 128.686 429.982 128.5 429.909C128.202 429.797 127.938 429.677 127.709 429.55C127.484 429.418 127.294 429.267 127.138 429.096C126.986 428.925 126.869 428.728 126.786 428.503C126.708 428.278 126.669 428.012 126.669 427.705C126.669 427.285 126.759 426.923 126.94 426.621C127.125 426.318 127.37 426.071 127.672 425.881C127.98 425.686 128.329 425.544 128.72 425.456C129.115 425.363 129.525 425.317 129.95 425.317C130.282 425.317 130.619 425.344 130.961 425.397C131.303 425.446 131.64 425.52 131.972 425.617V427.404C131.679 427.233 131.364 427.106 131.027 427.023C130.695 426.936 130.368 426.892 130.045 426.892C129.894 426.892 129.75 426.906 129.613 426.936C129.481 426.96 129.364 426.999 129.262 427.053C129.159 427.102 129.079 427.167 129.02 427.25C128.961 427.329 128.932 427.419 128.932 427.521C128.932 427.658 128.976 427.775 129.064 427.873C129.152 427.971 129.267 428.056 129.408 428.129C129.55 428.198 129.706 428.261 129.877 428.32C130.053 428.374 130.226 428.43 130.397 428.488C130.705 428.596 130.983 428.713 131.232 428.84C131.481 428.967 131.693 429.116 131.869 429.287C132.05 429.458 132.187 429.658 132.279 429.887C132.377 430.117 132.426 430.39 132.426 430.708C132.426 431.152 132.328 431.533 132.133 431.85C131.942 432.163 131.686 432.419 131.364 432.619C131.046 432.814 130.678 432.956 130.258 433.044C129.843 433.137 129.411 433.183 128.961 433.183C128.136 433.183 127.372 433.056 126.669 432.802ZM140.006 433H137.816V431.923H137.787C137.284 432.763 136.54 433.183 135.553 433.183C134.826 433.183 134.252 432.978 133.832 432.568C133.417 432.153 133.209 431.601 133.209 430.913C133.209 429.458 134.071 428.618 135.795 428.393L137.831 428.122C137.831 427.302 137.387 426.892 136.498 426.892C135.604 426.892 134.755 427.158 133.949 427.69V425.947C134.271 425.781 134.711 425.634 135.268 425.507C135.829 425.38 136.339 425.317 136.798 425.317C138.937 425.317 140.006 426.384 140.006 428.518V433ZM137.831 429.953V429.448L136.469 429.624C135.717 429.721 135.341 430.061 135.341 430.642C135.341 430.905 135.431 431.123 135.612 431.293C135.797 431.459 136.046 431.542 136.359 431.542C136.793 431.542 137.147 431.394 137.421 431.096C137.694 430.793 137.831 430.412 137.831 429.953ZM149.176 433H146.862V431.967H146.833C146.305 432.778 145.531 433.183 144.511 433.183C143.573 433.183 142.819 432.854 142.248 432.194C141.676 431.53 141.391 430.605 141.391 429.418C141.391 428.178 141.706 427.185 142.335 426.438C142.965 425.69 143.791 425.317 144.811 425.317C145.778 425.317 146.452 425.664 146.833 426.357H146.862V421.896H149.176V433ZM146.906 429.353V428.789C146.906 428.3 146.764 427.895 146.481 427.573C146.198 427.25 145.829 427.089 145.375 427.089C144.862 427.089 144.462 427.292 144.174 427.697C143.886 428.098 143.742 428.649 143.742 429.353C143.742 430.012 143.881 430.52 144.159 430.876C144.438 431.232 144.823 431.411 145.316 431.411C145.785 431.411 146.166 431.223 146.459 430.847C146.757 430.471 146.906 429.973 146.906 429.353ZM157.365 433H155.175V431.923H155.146C154.643 432.763 153.898 433.183 152.912 433.183C152.184 433.183 151.61 432.978 151.19 432.568C150.775 432.153 150.568 431.601 150.568 430.913C150.568 429.458 151.43 428.618 153.153 428.393L155.189 428.122C155.189 427.302 154.745 426.892 153.856 426.892C152.963 426.892 152.113 427.158 151.308 427.69V425.947C151.63 425.781 152.069 425.634 152.626 425.507C153.188 425.38 153.698 425.317 154.157 425.317C156.295 425.317 157.365 426.384 157.365 428.518V433ZM155.189 429.953V429.448L153.827 429.624C153.075 429.721 152.699 430.061 152.699 430.642C152.699 430.905 152.79 431.123 152.97 431.293C153.156 431.459 153.405 431.542 153.717 431.542C154.152 431.542 154.506 431.394 154.779 431.096C155.053 430.793 155.189 430.412 155.189 429.953ZM158.705 432.802V430.927C159.086 431.157 159.464 431.328 159.84 431.44C160.221 431.552 160.58 431.608 160.917 431.608C161.327 431.608 161.649 431.552 161.884 431.44C162.123 431.328 162.243 431.157 162.243 430.927C162.243 430.781 162.189 430.659 162.082 430.561C161.974 430.463 161.835 430.378 161.664 430.305C161.498 430.231 161.315 430.166 161.115 430.107C160.915 430.048 160.722 429.982 160.536 429.909C160.238 429.797 159.975 429.677 159.745 429.55C159.521 429.418 159.33 429.267 159.174 429.096C159.022 428.925 158.905 428.728 158.822 428.503C158.744 428.278 158.705 428.012 158.705 427.705C158.705 427.285 158.795 426.923 158.976 426.621C159.162 426.318 159.406 426.071 159.708 425.881C160.016 425.686 160.365 425.544 160.756 425.456C161.151 425.363 161.562 425.317 161.986 425.317C162.318 425.317 162.655 425.344 162.997 425.397C163.339 425.446 163.676 425.52 164.008 425.617V427.404C163.715 427.233 163.4 427.106 163.063 427.023C162.731 426.936 162.404 426.892 162.082 426.892C161.93 426.892 161.786 426.906 161.649 426.936C161.518 426.96 161.4 426.999 161.298 427.053C161.195 427.102 161.115 427.167 161.056 427.25C160.998 427.329 160.968 427.419 160.968 427.521C160.968 427.658 161.012 427.775 161.1 427.873C161.188 427.971 161.303 428.056 161.444 428.129C161.586 428.198 161.742 428.261 161.913 428.32C162.089 428.374 162.262 428.43 162.433 428.488C162.741 428.596 163.019 428.713 163.268 428.84C163.517 428.967 163.729 429.116 163.905 429.287C164.086 429.458 164.223 429.658 164.315 429.887C164.413 430.117 164.462 430.39 164.462 430.708C164.462 431.152 164.364 431.533 164.169 431.85C163.979 432.163 163.722 432.419 163.4 432.619C163.083 432.814 162.714 432.956 162.294 433.044C161.879 433.137 161.447 433.183 160.998 433.183C160.172 433.183 159.408 433.056 158.705 432.802Z" fill="white"/>
<path d="M32.2012 586V575.497H35.9219C39.6523 575.497 41.5176 577.204 41.5176 580.617C41.5176 582.252 41.0073 583.559 39.9868 584.535C38.9712 585.512 37.6162 586 35.9219 586H32.2012ZM34.5669 577.423V584.081H35.7388C36.7642 584.081 37.5674 583.773 38.1484 583.158C38.7344 582.543 39.0273 581.706 39.0273 580.646C39.0273 579.645 38.7368 578.859 38.1558 578.288C37.5796 577.711 36.769 577.423 35.7241 577.423H34.5669ZM49.772 582.909H44.8794C44.9575 583.998 45.6436 584.542 46.9375 584.542C47.7627 584.542 48.4878 584.347 49.1128 583.957V585.626C48.4194 585.998 47.5186 586.183 46.4102 586.183C45.1992 586.183 44.2593 585.849 43.5903 585.18C42.9214 584.506 42.5869 583.568 42.5869 582.367C42.5869 581.122 42.9482 580.136 43.6709 579.408C44.3936 578.681 45.2822 578.317 46.3369 578.317C47.4307 578.317 48.2754 578.642 48.8711 579.291C49.4717 579.94 49.772 580.822 49.772 581.935V582.909ZM47.626 581.488C47.626 580.414 47.1914 579.877 46.3223 579.877C45.9512 579.877 45.6289 580.031 45.3555 580.338C45.0869 580.646 44.9233 581.029 44.8647 581.488H47.626ZM58.29 578.5L55.4995 586H52.8628L50.2041 578.5H52.6797L53.9834 583.122C54.1299 583.644 54.2153 584.088 54.2397 584.455H54.269C54.3032 584.108 54.3936 583.678 54.54 583.166L55.873 578.5H58.29ZM62.7065 586.183C61.4565 586.183 60.4727 585.834 59.7549 585.136C59.042 584.433 58.6855 583.48 58.6855 582.279C58.6855 581.039 59.0566 580.07 59.7988 579.372C60.541 578.668 61.5444 578.317 62.8091 578.317C64.0542 578.317 65.0308 578.668 65.7388 579.372C66.4468 580.07 66.8008 580.995 66.8008 582.147C66.8008 583.393 66.4346 584.376 65.7021 585.099C64.9746 585.822 63.9761 586.183 62.7065 586.183ZM62.7651 580.089C62.2183 580.089 61.7935 580.277 61.4907 580.653C61.188 581.029 61.0366 581.562 61.0366 582.25C61.0366 583.69 61.6177 584.411 62.7798 584.411C63.8882 584.411 64.4424 583.671 64.4424 582.191C64.4424 580.79 63.8833 580.089 62.7651 580.089ZM70.6167 586H68.3022V574.896H70.6167V586ZM79.6914 586H77.3843V584.857H77.3477C76.7764 585.741 76.0122 586.183 75.0552 586.183C73.3169 586.183 72.4478 585.131 72.4478 583.026V578.5H74.7549V582.821C74.7549 583.881 75.1748 584.411 76.0146 584.411C76.4297 584.411 76.7617 584.267 77.0107 583.979C77.2598 583.686 77.3843 583.29 77.3843 582.792V578.5H79.6914V586ZM87.3306 585.729C86.8081 586.032 86.0537 586.183 85.0674 586.183C83.915 586.183 82.9824 585.834 82.2695 585.136C81.5566 584.438 81.2002 583.537 81.2002 582.433C81.2002 581.159 81.5811 580.155 82.3428 579.423C83.1094 578.686 84.1323 578.317 85.4116 578.317C86.2954 578.317 86.9351 578.434 87.3306 578.668V580.631C86.8472 580.27 86.3076 580.089 85.7119 580.089C85.0479 580.089 84.5205 580.285 84.1299 580.675C83.7441 581.061 83.5513 581.596 83.5513 582.279C83.5513 582.943 83.7368 583.466 84.1079 583.847C84.479 584.223 84.9893 584.411 85.6387 584.411C86.2148 584.411 86.7788 584.23 87.3306 583.869V585.729ZM83.793 589.303V588.292C83.9639 588.322 84.1396 588.336 84.3203 588.336C84.9209 588.336 85.2212 588.158 85.2212 587.802C85.2212 587.479 84.9502 587.318 84.4082 587.318C84.3447 587.318 84.2544 587.323 84.1372 587.333V586H85.397V586.601C86.3101 586.64 86.7666 587.045 86.7666 587.816C86.7666 588.827 85.9902 589.333 84.4375 589.333C84.2129 589.333 83.998 589.323 83.793 589.303ZM92.4282 586.183C91.1782 586.183 90.1943 585.834 89.4766 585.136C88.7637 584.433 88.4072 583.48 88.4072 582.279C88.4072 581.039 88.7783 580.07 89.5205 579.372C90.2627 578.668 91.2661 578.317 92.5308 578.317C93.7759 578.317 94.7524 578.668 95.4604 579.372C96.1685 580.07 96.5225 580.995 96.5225 582.147C96.5225 583.393 96.1562 584.376 95.4238 585.099C94.6963 585.822 93.6978 586.183 92.4282 586.183ZM92.4868 580.089C91.9399 580.089 91.5151 580.277 91.2124 580.653C90.9097 581.029 90.7583 581.562 90.7583 582.25C90.7583 583.69 91.3394 584.411 92.5015 584.411C93.6099 584.411 94.1641 583.671 94.1641 582.191C94.1641 580.79 93.605 580.089 92.4868 580.089ZM95.0942 575.036C95.0942 575.719 94.9575 576.249 94.6841 576.625C94.4155 576.996 94.0469 577.182 93.5781 577.182C93.1582 577.182 92.748 577.077 92.3477 576.867C91.9131 576.637 91.6128 576.522 91.4468 576.522C91.0562 576.522 90.8608 576.786 90.8608 577.313H89.8281C89.8281 576.635 89.9624 576.107 90.231 575.731C90.4995 575.355 90.8755 575.167 91.3589 575.167C91.7544 575.167 92.1646 575.287 92.5894 575.526C92.9751 575.741 93.2681 575.849 93.4683 575.849C93.8491 575.849 94.0396 575.578 94.0396 575.036H95.0942ZM104.762 582.909H99.8696C99.9478 583.998 100.634 584.542 101.928 584.542C102.753 584.542 103.478 584.347 104.103 583.957V585.626C103.41 585.998 102.509 586.183 101.4 586.183C100.189 586.183 99.2495 585.849 98.5806 585.18C97.9116 584.506 97.5771 583.568 97.5771 582.367C97.5771 581.122 97.9385 580.136 98.6611 579.408C99.3838 578.681 100.272 578.317 101.327 578.317C102.421 578.317 103.266 578.642 103.861 579.291C104.462 579.94 104.762 580.822 104.762 581.935V582.909ZM102.616 581.488C102.616 580.414 102.182 579.877 101.312 579.877C100.941 579.877 100.619 580.031 100.346 580.338C100.077 580.646 99.9136 581.029 99.855 581.488H102.616ZM105.648 585.802V583.927C106.029 584.157 106.408 584.328 106.784 584.44C107.165 584.552 107.523 584.608 107.86 584.608C108.271 584.608 108.593 584.552 108.827 584.44C109.066 584.328 109.186 584.157 109.186 583.927C109.186 583.781 109.132 583.659 109.025 583.561C108.917 583.463 108.778 583.378 108.607 583.305C108.441 583.231 108.258 583.166 108.058 583.107C107.858 583.048 107.665 582.982 107.479 582.909C107.182 582.797 106.918 582.677 106.688 582.55C106.464 582.418 106.273 582.267 106.117 582.096C105.966 581.925 105.849 581.728 105.766 581.503C105.688 581.278 105.648 581.012 105.648 580.705C105.648 580.285 105.739 579.923 105.919 579.621C106.105 579.318 106.349 579.071 106.652 578.881C106.959 578.686 107.309 578.544 107.699 578.456C108.095 578.363 108.505 578.317 108.93 578.317C109.262 578.317 109.599 578.344 109.94 578.397C110.282 578.446 110.619 578.52 110.951 578.617V580.404C110.658 580.233 110.343 580.106 110.006 580.023C109.674 579.936 109.347 579.892 109.025 579.892C108.874 579.892 108.729 579.906 108.593 579.936C108.461 579.96 108.344 579.999 108.241 580.053C108.139 580.102 108.058 580.167 108 580.25C107.941 580.329 107.912 580.419 107.912 580.521C107.912 580.658 107.956 580.775 108.043 580.873C108.131 580.971 108.246 581.056 108.388 581.129C108.529 581.198 108.686 581.261 108.856 581.32C109.032 581.374 109.206 581.43 109.376 581.488C109.684 581.596 109.962 581.713 110.211 581.84C110.46 581.967 110.673 582.116 110.849 582.287C111.029 582.458 111.166 582.658 111.259 582.887C111.356 583.117 111.405 583.39 111.405 583.708C111.405 584.152 111.308 584.533 111.112 584.85C110.922 585.163 110.666 585.419 110.343 585.619C110.026 585.814 109.657 585.956 109.237 586.044C108.822 586.137 108.39 586.183 107.941 586.183C107.116 586.183 106.352 586.056 105.648 585.802Z" fill="white"/>
<path d="M211.5 248.5H260C264.694 248.5 268.5 252.306 268.5 257V284.5H220C215.306 284.5 211.5 280.694 211.5 276V248.5Z" fill="url(#paint10_linear_26_6)" stroke="#F4F7FE" stroke-width="3"/>
<path d="M229.625 268.312L228.719 266.5H235.062L234.337 264.687H228.417L227.51 262.875H236.935L236.21 261.062H227.341L226.302 259.25H230.833C230.833 258.609 231.088 257.994 231.541 257.541C231.994 257.088 232.609 256.833 233.25 256.833H247.75V261.667H251.375L255 266.5V272.542H252.583C252.583 273.503 252.201 274.425 251.522 275.105C250.842 275.785 249.92 276.167 248.958 276.167C247.997 276.167 247.075 275.785 246.395 275.105C245.715 274.425 245.333 273.503 245.333 272.542H240.5C240.5 273.503 240.118 274.425 239.438 275.105C238.758 275.785 237.836 276.167 236.875 276.167C235.914 276.167 234.991 275.785 234.312 275.105C233.632 274.425 233.25 273.503 233.25 272.542H230.833V268.312H229.625ZM248.958 274.354C249.439 274.354 249.9 274.163 250.24 273.823C250.58 273.483 250.771 273.022 250.771 272.542C250.771 272.061 250.58 271.6 250.24 271.26C249.9 270.92 249.439 270.729 248.958 270.729C248.478 270.729 248.017 270.92 247.677 271.26C247.337 271.6 247.146 272.061 247.146 272.542C247.146 273.022 247.337 273.483 247.677 273.823C248.017 274.163 248.478 274.354 248.958 274.354ZM250.771 263.479H247.75V266.5H253.139L250.771 263.479ZM236.875 274.354C237.356 274.354 237.817 274.163 238.157 273.823C238.496 273.483 238.687 273.022 238.687 272.542C238.687 272.061 238.496 271.6 238.157 271.26C237.817 270.92 237.356 270.729 236.875 270.729C236.394 270.729 235.933 270.92 235.593 271.26C235.253 271.6 235.062 272.061 235.062 272.542C235.062 273.022 235.253 273.483 235.593 273.823C235.933 274.163 236.394 274.354 236.875 274.354Z" fill="white"/>
<path d="M211.5 401.5H260C264.694 401.5 268.5 405.306 268.5 410V437.5H220C215.306 437.5 211.5 433.694 211.5 429V401.5Z" fill="url(#paint11_linear_26_6)" stroke="#F4F7FE" stroke-width="3"/>
<path d="M240 430.221C245.523 430.221 250 425.699 250 420.121C250 414.542 245.523 410.02 240 410.02C234.477 410.02 230 414.542 230 420.121C230 425.699 234.477 430.221 240 430.221Z" stroke="white" stroke-width="2" stroke-linecap="round" stroke-linejoin="round"/>
<path d="M240 414.06V420.121L244 422.141" stroke="white" stroke-width="2" stroke-linecap="round" stroke-linejoin="round"/>
<path d="M211.5 554.5H260C264.694 554.5 268.5 558.306 268.5 563V590.5H220C215.306 590.5 211.5 586.694 211.5 582V554.5Z" fill="url(#paint12_linear_26_6)" stroke="#F4F7FE" stroke-width="3"/>
<path d="M211.5 95.5H260C264.694 95.5 268.5 99.3056 268.5 104V131.5H220C215.306 131.5 211.5 127.694 211.5 123V95.5Z" fill="url(#paint13_linear_26_6)" stroke="#373867" stroke-width="3"/>
<path d="M116.294 212.298L113.641 220H111.675L109.054 212.298H110.923L112.529 217.658C112.615 217.948 112.667 218.204 112.685 218.426H112.717C112.742 218.186 112.797 217.923 112.883 217.637L114.479 212.298H116.294ZM116.272 219.855V218.48C116.552 218.648 116.829 218.774 117.105 218.856C117.384 218.938 117.647 218.979 117.895 218.979C118.195 218.979 118.432 218.938 118.604 218.856C118.779 218.774 118.867 218.648 118.867 218.48C118.867 218.373 118.827 218.283 118.749 218.211C118.67 218.14 118.568 218.077 118.442 218.023C118.321 217.97 118.186 217.921 118.04 217.878C117.893 217.835 117.751 217.787 117.615 217.733C117.397 217.651 117.203 217.563 117.035 217.47C116.87 217.374 116.731 217.263 116.616 217.137C116.505 217.012 116.419 216.867 116.358 216.702C116.301 216.537 116.272 216.342 116.272 216.117C116.272 215.809 116.339 215.544 116.471 215.322C116.607 215.1 116.786 214.919 117.008 214.779C117.234 214.636 117.49 214.532 117.776 214.468C118.066 214.4 118.367 214.366 118.679 214.366C118.922 214.366 119.169 214.385 119.42 214.425C119.671 214.461 119.918 214.514 120.161 214.586V215.896C119.946 215.771 119.715 215.678 119.468 215.617C119.225 215.553 118.985 215.521 118.749 215.521C118.638 215.521 118.532 215.531 118.432 215.553C118.335 215.571 118.249 215.599 118.174 215.639C118.099 215.674 118.04 215.723 117.997 215.784C117.954 215.841 117.932 215.907 117.932 215.982C117.932 216.083 117.964 216.169 118.029 216.24C118.093 216.312 118.177 216.375 118.281 216.428C118.385 216.478 118.5 216.525 118.625 216.568C118.754 216.607 118.881 216.648 119.006 216.691C119.232 216.77 119.436 216.856 119.619 216.949C119.801 217.042 119.957 217.152 120.086 217.277C120.218 217.402 120.319 217.549 120.387 217.717C120.458 217.886 120.494 218.086 120.494 218.319C120.494 218.645 120.423 218.924 120.279 219.157C120.14 219.386 119.952 219.574 119.715 219.721C119.483 219.864 119.212 219.968 118.904 220.032C118.6 220.1 118.283 220.134 117.954 220.134C117.348 220.134 116.788 220.041 116.272 219.855ZM122.234 220.134C121.955 220.134 121.722 220.048 121.536 219.876C121.35 219.705 121.257 219.493 121.257 219.243C121.257 218.985 121.352 218.774 121.542 218.609C121.735 218.444 121.975 218.362 122.261 218.362C122.551 218.362 122.788 218.446 122.97 218.614C123.156 218.779 123.25 218.988 123.25 219.243C123.25 219.504 123.155 219.719 122.965 219.887C122.779 220.052 122.535 220.134 122.234 220.134ZM134.443 220H132.552L132.004 218.287H129.265L128.723 220H126.843L129.646 212.298H131.704L134.443 220ZM131.607 216.955L130.78 214.366C130.719 214.172 130.676 213.941 130.651 213.673H130.608C130.59 213.898 130.545 214.122 130.474 214.344L129.636 216.955H131.607ZM140.55 220H138.858V216.944C138.858 216.092 138.554 215.666 137.945 215.666C137.651 215.666 137.41 215.778 137.22 216.004C137.03 216.229 136.935 216.516 136.935 216.863V220H135.238V214.5H136.935V215.37H136.957C137.361 214.701 137.95 214.366 138.724 214.366C139.941 214.366 140.55 215.121 140.55 216.632V220ZM144.519 220.134C143.602 220.134 142.881 219.878 142.354 219.366C141.832 218.851 141.57 218.152 141.57 217.271C141.57 216.362 141.842 215.651 142.387 215.139C142.931 214.624 143.667 214.366 144.594 214.366C145.507 214.366 146.223 214.624 146.743 215.139C147.262 215.651 147.521 216.33 147.521 217.175C147.521 218.088 147.253 218.809 146.716 219.339C146.182 219.869 145.45 220.134 144.519 220.134ZM144.562 215.666C144.161 215.666 143.849 215.803 143.627 216.079C143.405 216.355 143.294 216.745 143.294 217.25C143.294 218.306 143.721 218.834 144.573 218.834C145.386 218.834 145.792 218.292 145.792 217.207C145.792 216.179 145.382 215.666 144.562 215.666ZM158.602 220H156.711L156.164 218.287H153.424L152.882 220H151.002L153.806 212.298H155.863L158.602 220ZM155.766 216.955L154.939 214.366C154.878 214.172 154.835 213.941 154.81 213.673H154.767C154.749 213.898 154.704 214.122 154.633 214.344L153.795 216.955H155.766ZM164.709 220H163.017V216.944C163.017 216.092 162.713 215.666 162.104 215.666C161.81 215.666 161.569 215.778 161.379 216.004C161.189 216.229 161.094 216.516 161.094 216.863V220H159.397V214.5H161.094V215.37H161.116C161.52 214.701 162.109 214.366 162.883 214.366C164.1 214.366 164.709 215.121 164.709 216.632V220ZM169.382 219.936C169.131 220.068 168.753 220.134 168.249 220.134C167.053 220.134 166.455 219.513 166.455 218.271V215.751H165.563V214.5H166.455V213.313L168.146 212.83V214.5H169.382V215.751H168.146V217.975C168.146 218.548 168.374 218.834 168.829 218.834C169.008 218.834 169.192 218.783 169.382 218.679V219.936ZM175.242 217.733H171.654C171.711 218.532 172.214 218.931 173.163 218.931C173.768 218.931 174.3 218.788 174.758 218.501V219.726C174.25 219.998 173.589 220.134 172.776 220.134C171.888 220.134 171.199 219.889 170.708 219.398C170.218 218.904 169.973 218.217 169.973 217.336C169.973 216.423 170.238 215.7 170.768 215.166C171.298 214.632 171.949 214.366 172.723 214.366C173.525 214.366 174.144 214.604 174.581 215.08C175.021 215.556 175.242 216.203 175.242 217.019V217.733ZM173.668 216.691C173.668 215.904 173.349 215.51 172.712 215.51C172.44 215.51 172.203 215.623 172.003 215.848C171.806 216.074 171.686 216.355 171.643 216.691H173.668ZM179.839 216.031C179.635 215.92 179.397 215.864 179.125 215.864C178.756 215.864 178.468 216 178.26 216.272C178.053 216.541 177.949 216.908 177.949 217.374V220H176.251V214.5H177.949V215.521H177.97C178.239 214.776 178.722 214.403 179.42 214.403C179.599 214.403 179.739 214.425 179.839 214.468V216.031ZM181.537 213.63C181.25 213.63 181.016 213.546 180.833 213.377C180.65 213.206 180.559 212.996 180.559 212.749C180.559 212.495 180.65 212.287 180.833 212.126C181.016 211.965 181.25 211.884 181.537 211.884C181.827 211.884 182.061 211.965 182.24 212.126C182.423 212.287 182.514 212.495 182.514 212.749C182.514 213.007 182.423 213.218 182.24 213.383C182.061 213.548 181.827 213.63 181.537 213.63ZM182.375 220H180.677V214.5H182.375V220ZM186.424 220.134C185.508 220.134 184.786 219.878 184.26 219.366C183.737 218.851 183.476 218.152 183.476 217.271C183.476 216.362 183.748 215.651 184.292 215.139C184.836 214.624 185.572 214.366 186.5 214.366C187.413 214.366 188.129 214.624 188.648 215.139C189.167 215.651 189.427 216.33 189.427 217.175C189.427 218.088 189.158 218.809 188.621 219.339C188.088 219.869 187.355 220.134 186.424 220.134ZM186.467 215.666C186.066 215.666 185.755 215.803 185.533 216.079C185.311 216.355 185.2 216.745 185.2 217.25C185.2 218.306 185.626 218.834 186.478 218.834C187.291 218.834 187.697 218.292 187.697 217.207C187.697 216.179 187.287 215.666 186.467 215.666ZM194.116 216.031C193.912 215.92 193.674 215.864 193.401 215.864C193.033 215.864 192.744 216 192.537 216.272C192.329 216.541 192.225 216.908 192.225 217.374V220H190.528V214.5H192.225V215.521H192.247C192.515 214.776 192.999 214.403 193.697 214.403C193.876 214.403 194.015 214.425 194.116 214.468V216.031Z" fill="white" fill-opacity="0.9"/>
<path d="M116.294 365.298L113.641 373H111.675L109.054 365.298H110.923L112.529 370.658C112.615 370.948 112.667 371.204 112.685 371.426H112.717C112.742 371.186 112.797 370.923 112.883 370.637L114.479 365.298H116.294ZM116.272 372.855V371.48C116.552 371.648 116.829 371.774 117.105 371.856C117.384 371.938 117.647 371.979 117.895 371.979C118.195 371.979 118.432 371.938 118.604 371.856C118.779 371.774 118.867 371.648 118.867 371.48C118.867 371.373 118.827 371.283 118.749 371.211C118.67 371.14 118.568 371.077 118.442 371.023C118.321 370.97 118.186 370.921 118.04 370.878C117.893 370.835 117.751 370.787 117.615 370.733C117.397 370.651 117.203 370.563 117.035 370.47C116.87 370.374 116.731 370.263 116.616 370.137C116.505 370.012 116.419 369.867 116.358 369.702C116.301 369.537 116.272 369.342 116.272 369.117C116.272 368.809 116.339 368.544 116.471 368.322C116.607 368.1 116.786 367.919 117.008 367.779C117.234 367.636 117.49 367.532 117.776 367.468C118.066 367.4 118.367 367.366 118.679 367.366C118.922 367.366 119.169 367.385 119.42 367.425C119.671 367.461 119.918 367.514 120.161 367.586V368.896C119.946 368.771 119.715 368.678 119.468 368.617C119.225 368.553 118.985 368.521 118.749 368.521C118.638 368.521 118.532 368.531 118.432 368.553C118.335 368.571 118.249 368.599 118.174 368.639C118.099 368.674 118.04 368.723 117.997 368.784C117.954 368.841 117.932 368.907 117.932 368.982C117.932 369.083 117.964 369.169 118.029 369.24C118.093 369.312 118.177 369.375 118.281 369.428C118.385 369.478 118.5 369.525 118.625 369.568C118.754 369.607 118.881 369.648 119.006 369.691C119.232 369.77 119.436 369.856 119.619 369.949C119.801 370.042 119.957 370.152 120.086 370.277C120.218 370.402 120.319 370.549 120.387 370.717C120.458 370.886 120.494 371.086 120.494 371.319C120.494 371.645 120.423 371.924 120.279 372.157C120.14 372.386 119.952 372.574 119.715 372.721C119.483 372.864 119.212 372.968 118.904 373.032C118.6 373.1 118.283 373.134 117.954 373.134C117.348 373.134 116.788 373.041 116.272 372.855ZM122.234 373.134C121.955 373.134 121.722 373.048 121.536 372.876C121.35 372.705 121.257 372.493 121.257 372.243C121.257 371.985 121.352 371.774 121.542 371.609C121.735 371.444 121.975 371.362 122.261 371.362C122.551 371.362 122.788 371.446 122.97 371.614C123.156 371.779 123.25 371.988 123.25 372.243C123.25 372.504 123.155 372.719 122.965 372.887C122.779 373.052 122.535 373.134 122.234 373.134ZM134.443 373H132.552L132.004 371.287H129.265L128.723 373H126.843L129.646 365.298H131.704L134.443 373ZM131.607 369.955L130.78 367.366C130.719 367.172 130.676 366.941 130.651 366.673H130.608C130.59 366.898 130.545 367.122 130.474 367.344L129.636 369.955H131.607ZM140.55 373H138.858V369.944C138.858 369.092 138.554 368.666 137.945 368.666C137.651 368.666 137.41 368.778 137.22 369.004C137.03 369.229 136.935 369.516 136.935 369.863V373H135.238V367.5H136.935V368.37H136.957C137.361 367.701 137.95 367.366 138.724 367.366C139.941 367.366 140.55 368.121 140.55 369.632V373ZM144.519 373.134C143.602 373.134 142.881 372.878 142.354 372.366C141.832 371.851 141.57 371.152 141.57 370.271C141.57 369.362 141.842 368.651 142.387 368.139C142.931 367.624 143.667 367.366 144.594 367.366C145.507 367.366 146.223 367.624 146.743 368.139C147.262 368.651 147.521 369.33 147.521 370.175C147.521 371.088 147.253 371.809 146.716 372.339C146.182 372.869 145.45 373.134 144.519 373.134ZM144.562 368.666C144.161 368.666 143.849 368.803 143.627 369.079C143.405 369.355 143.294 369.745 143.294 370.25C143.294 371.306 143.721 371.834 144.573 371.834C145.386 371.834 145.792 371.292 145.792 370.207C145.792 369.179 145.382 368.666 144.562 368.666ZM158.602 373H156.711L156.164 371.287H153.424L152.882 373H151.002L153.806 365.298H155.863L158.602 373ZM155.766 369.955L154.939 367.366C154.878 367.172 154.835 366.941 154.81 366.673H154.767C154.749 366.898 154.704 367.122 154.633 367.344L153.795 369.955H155.766ZM164.709 373H163.017V369.944C163.017 369.092 162.713 368.666 162.104 368.666C161.81 368.666 161.569 368.778 161.379 369.004C161.189 369.229 161.094 369.516 161.094 369.863V373H159.397V367.5H161.094V368.37H161.116C161.52 367.701 162.109 367.366 162.883 367.366C164.1 367.366 164.709 368.121 164.709 369.632V373ZM169.382 372.936C169.131 373.068 168.753 373.134 168.249 373.134C167.053 373.134 166.455 372.513 166.455 371.271V368.751H165.563V367.5H166.455V366.313L168.146 365.83V367.5H169.382V368.751H168.146V370.975C168.146 371.548 168.374 371.834 168.829 371.834C169.008 371.834 169.192 371.783 169.382 371.679V372.936ZM175.242 370.733H171.654C171.711 371.532 172.214 371.931 173.163 371.931C173.768 371.931 174.3 371.788 174.758 371.501V372.726C174.25 372.998 173.589 373.134 172.776 373.134C171.888 373.134 171.199 372.889 170.708 372.398C170.218 371.904 169.973 371.217 169.973 370.336C169.973 369.423 170.238 368.7 170.768 368.166C171.298 367.632 171.949 367.366 172.723 367.366C173.525 367.366 174.144 367.604 174.581 368.08C175.021 368.556 175.242 369.203 175.242 370.019V370.733ZM173.668 369.691C173.668 368.904 173.349 368.51 172.712 368.51C172.44 368.51 172.203 368.623 172.003 368.848C171.806 369.074 171.686 369.355 171.643 369.691H173.668ZM179.839 369.031C179.635 368.92 179.397 368.864 179.125 368.864C178.756 368.864 178.468 369 178.26 369.272C178.053 369.541 177.949 369.908 177.949 370.374V373H176.251V367.5H177.949V368.521H177.97C178.239 367.776 178.722 367.403 179.42 367.403C179.599 367.403 179.739 367.425 179.839 367.468V369.031ZM181.537 366.63C181.25 366.63 181.016 366.546 180.833 366.377C180.65 366.206 180.559 365.996 180.559 365.749C180.559 365.495 180.65 365.287 180.833 365.126C181.016 364.965 181.25 364.884 181.537 364.884C181.827 364.884 182.061 364.965 182.24 365.126C182.423 365.287 182.514 365.495 182.514 365.749C182.514 366.007 182.423 366.218 182.24 366.383C182.061 366.548 181.827 366.63 181.537 366.63ZM182.375 373H180.677V367.5H182.375V373ZM186.424 373.134C185.508 373.134 184.786 372.878 184.26 372.366C183.737 371.851 183.476 371.152 183.476 370.271C183.476 369.362 183.748 368.651 184.292 368.139C184.836 367.624 185.572 367.366 186.5 367.366C187.413 367.366 188.129 367.624 188.648 368.139C189.167 368.651 189.427 369.33 189.427 370.175C189.427 371.088 189.158 371.809 188.621 372.339C188.088 372.869 187.355 373.134 186.424 373.134ZM186.467 368.666C186.066 368.666 185.755 368.803 185.533 369.079C185.311 369.355 185.2 369.745 185.2 370.25C185.2 371.306 185.626 371.834 186.478 371.834C187.291 371.834 187.697 371.292 187.697 370.207C187.697 369.179 187.287 368.666 186.467 368.666ZM194.116 369.031C193.912 368.92 193.674 368.864 193.401 368.864C193.033 368.864 192.744 369 192.537 369.272C192.329 369.541 192.225 369.908 192.225 370.374V373H190.528V367.5H192.225V368.521H192.247C192.515 367.776 192.999 367.403 193.697 367.403C193.876 367.403 194.015 367.425 194.116 367.468V369.031Z" fill="white" fill-opacity="0.9"/>
<path d="M116.294 518.298L113.641 526H111.675L109.054 518.298H110.923L112.529 523.658C112.615 523.948 112.667 524.204 112.685 524.426H112.717C112.742 524.186 112.797 523.923 112.883 523.637L114.479 518.298H116.294ZM116.272 525.855V524.48C116.552 524.648 116.829 524.774 117.105 524.856C117.384 524.938 117.647 524.979 117.895 524.979C118.195 524.979 118.432 524.938 118.604 524.856C118.779 524.774 118.867 524.648 118.867 524.48C118.867 524.373 118.827 524.283 118.749 524.211C118.67 524.14 118.568 524.077 118.442 524.023C118.321 523.97 118.186 523.921 118.04 523.878C117.893 523.835 117.751 523.787 117.615 523.733C117.397 523.651 117.203 523.563 117.035 523.47C116.87 523.374 116.731 523.263 116.616 523.137C116.505 523.012 116.419 522.867 116.358 522.702C116.301 522.537 116.272 522.342 116.272 522.117C116.272 521.809 116.339 521.544 116.471 521.322C116.607 521.1 116.786 520.919 117.008 520.779C117.234 520.636 117.49 520.532 117.776 520.468C118.066 520.4 118.367 520.366 118.679 520.366C118.922 520.366 119.169 520.385 119.42 520.425C119.671 520.461 119.918 520.514 120.161 520.586V521.896C119.946 521.771 119.715 521.678 119.468 521.617C119.225 521.553 118.985 521.521 118.749 521.521C118.638 521.521 118.532 521.531 118.432 521.553C118.335 521.571 118.249 521.599 118.174 521.639C118.099 521.674 118.04 521.723 117.997 521.784C117.954 521.841 117.932 521.907 117.932 521.982C117.932 522.083 117.964 522.169 118.029 522.24C118.093 522.312 118.177 522.375 118.281 522.428C118.385 522.478 118.5 522.525 118.625 522.568C118.754 522.607 118.881 522.648 119.006 522.691C119.232 522.77 119.436 522.856 119.619 522.949C119.801 523.042 119.957 523.152 120.086 523.277C120.218 523.402 120.319 523.549 120.387 523.717C120.458 523.886 120.494 524.086 120.494 524.319C120.494 524.645 120.423 524.924 120.279 525.157C120.14 525.386 119.952 525.574 119.715 525.721C119.483 525.864 119.212 525.968 118.904 526.032C118.6 526.1 118.283 526.134 117.954 526.134C117.348 526.134 116.788 526.041 116.272 525.855ZM122.234 526.134C121.955 526.134 121.722 526.048 121.536 525.876C121.35 525.705 121.257 525.493 121.257 525.243C121.257 524.985 121.352 524.774 121.542 524.609C121.735 524.444 121.975 524.362 122.261 524.362C122.551 524.362 122.788 524.446 122.97 524.614C123.156 524.779 123.25 524.988 123.25 525.243C123.25 525.504 123.155 525.719 122.965 525.887C122.779 526.052 122.535 526.134 122.234 526.134ZM134.443 526H132.552L132.004 524.287H129.265L128.723 526H126.843L129.646 518.298H131.704L134.443 526ZM131.607 522.955L130.78 520.366C130.719 520.172 130.676 519.941 130.651 519.673H130.608C130.59 519.898 130.545 520.122 130.474 520.344L129.636 522.955H131.607ZM140.55 526H138.858V522.944C138.858 522.092 138.554 521.666 137.945 521.666C137.651 521.666 137.41 521.778 137.22 522.004C137.03 522.229 136.935 522.516 136.935 522.863V526H135.238V520.5H136.935V521.37H136.957C137.361 520.701 137.95 520.366 138.724 520.366C139.941 520.366 140.55 521.121 140.55 522.632V526ZM144.519 526.134C143.602 526.134 142.881 525.878 142.354 525.366C141.832 524.851 141.57 524.152 141.57 523.271C141.57 522.362 141.842 521.651 142.387 521.139C142.931 520.624 143.667 520.366 144.594 520.366C145.507 520.366 146.223 520.624 146.743 521.139C147.262 521.651 147.521 522.33 147.521 523.175C147.521 524.088 147.253 524.809 146.716 525.339C146.182 525.869 145.45 526.134 144.519 526.134ZM144.562 521.666C144.161 521.666 143.849 521.803 143.627 522.079C143.405 522.355 143.294 522.745 143.294 523.25C143.294 524.306 143.721 524.834 144.573 524.834C145.386 524.834 145.792 524.292 145.792 523.207C145.792 522.179 145.382 521.666 144.562 521.666ZM158.602 526H156.711L156.164 524.287H153.424L152.882 526H151.002L153.806 518.298H155.863L158.602 526ZM155.766 522.955L154.939 520.366C154.878 520.172 154.835 519.941 154.81 519.673H154.767C154.749 519.898 154.704 520.122 154.633 520.344L153.795 522.955H155.766ZM164.709 526H163.017V522.944C163.017 522.092 162.713 521.666 162.104 521.666C161.81 521.666 161.569 521.778 161.379 522.004C161.189 522.229 161.094 522.516 161.094 522.863V526H159.397V520.5H161.094V521.37H161.116C161.52 520.701 162.109 520.366 162.883 520.366C164.1 520.366 164.709 521.121 164.709 522.632V526ZM169.382 525.936C169.131 526.068 168.753 526.134 168.249 526.134C167.053 526.134 166.455 525.513 166.455 524.271V521.751H165.563V520.5H166.455V519.313L168.146 518.83V520.5H169.382V521.751H168.146V523.975C168.146 524.548 168.374 524.834 168.829 524.834C169.008 524.834 169.192 524.783 169.382 524.679V525.936ZM175.242 523.733H171.654C171.711 524.532 172.214 524.931 173.163 524.931C173.768 524.931 174.3 524.788 174.758 524.501V525.726C174.25 525.998 173.589 526.134 172.776 526.134C171.888 526.134 171.199 525.889 170.708 525.398C170.218 524.904 169.973 524.217 169.973 523.336C169.973 522.423 170.238 521.7 170.768 521.166C171.298 520.632 171.949 520.366 172.723 520.366C173.525 520.366 174.144 520.604 174.581 521.08C175.021 521.556 175.242 522.203 175.242 523.019V523.733ZM173.668 522.691C173.668 521.904 173.349 521.51 172.712 521.51C172.44 521.51 172.203 521.623 172.003 521.848C171.806 522.074 171.686 522.355 171.643 522.691H173.668ZM179.839 522.031C179.635 521.92 179.397 521.864 179.125 521.864C178.756 521.864 178.468 522 178.26 522.272C178.053 522.541 177.949 522.908 177.949 523.374V526H176.251V520.5H177.949V521.521H177.97C178.239 520.776 178.722 520.403 179.42 520.403C179.599 520.403 179.739 520.425 179.839 520.468V522.031ZM181.537 519.63C181.25 519.63 181.016 519.546 180.833 519.377C180.65 519.206 180.559 518.996 180.559 518.749C180.559 518.495 180.65 518.287 180.833 518.126C181.016 517.965 181.25 517.884 181.537 517.884C181.827 517.884 182.061 517.965 182.24 518.126C182.423 518.287 182.514 518.495 182.514 518.749C182.514 519.007 182.423 519.218 182.24 519.383C182.061 519.548 181.827 519.63 181.537 519.63ZM182.375 526H180.677V520.5H182.375V526ZM186.424 526.134C185.508 526.134 184.786 525.878 184.26 525.366C183.737 524.851 183.476 524.152 183.476 523.271C183.476 522.362 183.748 521.651 184.292 521.139C184.836 520.624 185.572 520.366 186.5 520.366C187.413 520.366 188.129 520.624 188.648 521.139C189.167 521.651 189.427 522.33 189.427 523.175C189.427 524.088 189.158 524.809 188.621 525.339C188.088 525.869 187.355 526.134 186.424 526.134ZM186.467 521.666C186.066 521.666 185.755 521.803 185.533 522.079C185.311 522.355 185.2 522.745 185.2 523.25C185.2 524.306 185.626 524.834 186.478 524.834C187.291 524.834 187.697 524.292 187.697 523.207C187.697 522.179 187.287 521.666 186.467 521.666ZM194.116 522.031C193.912 521.92 193.674 521.864 193.401 521.864C193.033 521.864 192.744 522 192.537 522.272C192.329 522.541 192.225 522.908 192.225 523.374V526H190.528V520.5H192.225V521.521H192.247C192.515 520.776 192.999 520.403 193.697 520.403C193.876 520.403 194.015 520.425 194.116 520.468V522.031Z" fill="white" fill-opacity="0.9"/>
<path d="M116.294 671.298L113.641 679H111.675L109.054 671.298H110.923L112.529 676.658C112.615 676.948 112.667 677.204 112.685 677.426H112.717C112.742 677.186 112.797 676.923 112.883 676.637L114.479 671.298H116.294ZM116.272 678.855V677.48C116.552 677.648 116.829 677.774 117.105 677.856C117.384 677.938 117.647 677.979 117.895 677.979C118.195 677.979 118.432 677.938 118.604 677.856C118.779 677.774 118.867 677.648 118.867 677.48C118.867 677.373 118.827 677.283 118.749 677.211C118.67 677.14 118.568 677.077 118.442 677.023C118.321 676.97 118.186 676.921 118.04 676.878C117.893 676.835 117.751 676.787 117.615 676.733C117.397 676.651 117.203 676.563 117.035 676.47C116.87 676.374 116.731 676.263 116.616 676.137C116.505 676.012 116.419 675.867 116.358 675.702C116.301 675.537 116.272 675.342 116.272 675.117C116.272 674.809 116.339 674.544 116.471 674.322C116.607 674.1 116.786 673.919 117.008 673.779C117.234 673.636 117.49 673.532 117.776 673.468C118.066 673.4 118.367 673.366 118.679 673.366C118.922 673.366 119.169 673.385 119.42 673.425C119.671 673.461 119.918 673.514 120.161 673.586V674.896C119.946 674.771 119.715 674.678 119.468 674.617C119.225 674.553 118.985 674.521 118.749 674.521C118.638 674.521 118.532 674.531 118.432 674.553C118.335 674.571 118.249 674.599 118.174 674.639C118.099 674.674 118.04 674.723 117.997 674.784C117.954 674.841 117.932 674.907 117.932 674.982C117.932 675.083 117.964 675.169 118.029 675.24C118.093 675.312 118.177 675.375 118.281 675.428C118.385 675.478 118.5 675.525 118.625 675.568C118.754 675.607 118.881 675.648 119.006 675.691C119.232 675.77 119.436 675.856 119.619 675.949C119.801 676.042 119.957 676.152 120.086 676.277C120.218 676.402 120.319 676.549 120.387 676.717C120.458 676.886 120.494 677.086 120.494 677.319C120.494 677.645 120.423 677.924 120.279 678.157C120.14 678.386 119.952 678.574 119.715 678.721C119.483 678.864 119.212 678.968 118.904 679.032C118.6 679.1 118.283 679.134 117.954 679.134C117.348 679.134 116.788 679.041 116.272 678.855ZM122.234 679.134C121.955 679.134 121.722 679.048 121.536 678.876C121.35 678.705 121.257 678.493 121.257 678.243C121.257 677.985 121.352 677.774 121.542 677.609C121.735 677.444 121.975 677.362 122.261 677.362C122.551 677.362 122.788 677.446 122.97 677.614C123.156 677.779 123.25 677.988 123.25 678.243C123.25 678.504 123.155 678.719 122.965 678.887C122.779 679.052 122.535 679.134 122.234 679.134ZM134.443 679H132.552L132.004 677.287H129.265L128.723 679H126.843L129.646 671.298H131.704L134.443 679ZM131.607 675.955L130.78 673.366C130.719 673.172 130.676 672.941 130.651 672.673H130.608C130.59 672.898 130.545 673.122 130.474 673.344L129.636 675.955H131.607ZM140.55 679H138.858V675.944C138.858 675.092 138.554 674.666 137.945 674.666C137.651 674.666 137.41 674.778 137.22 675.004C137.03 675.229 136.935 675.516 136.935 675.863V679H135.238V673.5H136.935V674.37H136.957C137.361 673.701 137.95 673.366 138.724 673.366C139.941 673.366 140.55 674.121 140.55 675.632V679ZM144.519 679.134C143.602 679.134 142.881 678.878 142.354 678.366C141.832 677.851 141.57 677.152 141.57 676.271C141.57 675.362 141.842 674.651 142.387 674.139C142.931 673.624 143.667 673.366 144.594 673.366C145.507 673.366 146.223 673.624 146.743 674.139C147.262 674.651 147.521 675.33 147.521 676.175C147.521 677.088 147.253 677.809 146.716 678.339C146.182 678.869 145.45 679.134 144.519 679.134ZM144.562 674.666C144.161 674.666 143.849 674.803 143.627 675.079C143.405 675.355 143.294 675.745 143.294 676.25C143.294 677.306 143.721 677.834 144.573 677.834C145.386 677.834 145.792 677.292 145.792 676.207C145.792 675.179 145.382 674.666 144.562 674.666ZM158.602 679H156.711L156.164 677.287H153.424L152.882 679H151.002L153.806 671.298H155.863L158.602 679ZM155.766 675.955L154.939 673.366C154.878 673.172 154.835 672.941 154.81 672.673H154.767C154.749 672.898 154.704 673.122 154.633 673.344L153.795 675.955H155.766ZM164.709 679H163.017V675.944C163.017 675.092 162.713 674.666 162.104 674.666C161.81 674.666 161.569 674.778 161.379 675.004C161.189 675.229 161.094 675.516 161.094 675.863V679H159.397V673.5H161.094V674.37H161.116C161.52 673.701 162.109 673.366 162.883 673.366C164.1 673.366 164.709 674.121 164.709 675.632V679ZM169.382 678.936C169.131 679.068 168.753 679.134 168.249 679.134C167.053 679.134 166.455 678.513 166.455 677.271V674.751H165.563V673.5H166.455V672.313L168.146 671.83V673.5H169.382V674.751H168.146V676.975C168.146 677.548 168.374 677.834 168.829 677.834C169.008 677.834 169.192 677.783 169.382 677.679V678.936ZM175.242 676.733H171.654C171.711 677.532 172.214 677.931 173.163 677.931C173.768 677.931 174.3 677.788 174.758 677.501V678.726C174.25 678.998 173.589 679.134 172.776 679.134C171.888 679.134 171.199 678.889 170.708 678.398C170.218 677.904 169.973 677.217 169.973 676.336C169.973 675.423 170.238 674.7 170.768 674.166C171.298 673.632 171.949 673.366 172.723 673.366C173.525 673.366 174.144 673.604 174.581 674.08C175.021 674.556 175.242 675.203 175.242 676.019V676.733ZM173.668 675.691C173.668 674.904 173.349 674.51 172.712 674.51C172.44 674.51 172.203 674.623 172.003 674.848C171.806 675.074 171.686 675.355 171.643 675.691H173.668ZM179.839 675.031C179.635 674.92 179.397 674.864 179.125 674.864C178.756 674.864 178.468 675 178.26 675.272C178.053 675.541 177.949 675.908 177.949 676.374V679H176.251V673.5H177.949V674.521H177.97C178.239 673.776 178.722 673.403 179.42 673.403C179.599 673.403 179.739 673.425 179.839 673.468V675.031ZM181.537 672.63C181.25 672.63 181.016 672.546 180.833 672.377C180.65 672.206 180.559 671.996 180.559 671.749C180.559 671.495 180.65 671.287 180.833 671.126C181.016 670.965 181.25 670.884 181.537 670.884C181.827 670.884 182.061 670.965 182.24 671.126C182.423 671.287 182.514 671.495 182.514 671.749C182.514 672.007 182.423 672.218 182.24 672.383C182.061 672.548 181.827 672.63 181.537 672.63ZM182.375 679H180.677V673.5H182.375V679ZM186.424 679.134C185.508 679.134 184.786 678.878 184.26 678.366C183.737 677.851 183.476 677.152 183.476 676.271C183.476 675.362 183.748 674.651 184.292 674.139C184.836 673.624 185.572 673.366 186.5 673.366C187.413 673.366 188.129 673.624 188.648 674.139C189.167 674.651 189.427 675.33 189.427 676.175C189.427 677.088 189.158 677.809 188.621 678.339C188.088 678.869 187.355 679.134 186.424 679.134ZM186.467 674.666C186.066 674.666 185.755 674.803 185.533 675.079C185.311 675.355 185.2 675.745 185.2 676.25C185.2 677.306 185.626 677.834 186.478 677.834C187.291 677.834 187.697 677.292 187.697 676.207C187.697 675.179 187.287 674.666 186.467 674.666ZM194.116 675.031C193.912 674.92 193.674 674.864 193.401 674.864C193.033 674.864 192.744 675 192.537 675.272C192.329 675.541 192.225 675.908 192.225 676.374V679H190.528V673.5H192.225V674.521H192.247C192.515 673.776 192.999 673.403 193.697 673.403C193.876 673.403 194.015 673.425 194.116 673.468V675.031Z" fill="white" fill-opacity="0.9"/>
<path d="M241.688 111.312C241.688 112.473 241.227 113.586 240.406 114.406C239.586 115.227 238.473 115.688 237.312 115.688C236.152 115.688 235.039 115.227 234.219 114.406C233.398 113.586 232.938 112.473 232.938 111.312C232.938 110.152 233.398 109.039 234.219 108.219C235.039 107.398 236.152 106.938 237.312 106.938C238.473 106.938 239.586 107.398 240.406 108.219C241.227 109.039 241.688 110.152 241.688 111.312ZM239.5 111.312C239.5 110.732 239.27 110.176 238.859 109.766C238.449 109.355 237.893 109.125 237.312 109.125C236.732 109.125 236.176 109.355 235.766 109.766C235.355 110.176 235.125 110.732 235.125 111.312C235.125 111.893 235.355 112.449 235.766 112.859C236.176 113.27 236.732 113.5 237.312 113.5C237.893 113.5 238.449 113.27 238.859 112.859C239.27 112.449 239.5 111.893 239.5 111.312Z" fill="white"/>
<path d="M224.188 105.297C224.188 103.788 225.413 102.562 226.922 102.562H247.703C249.212 102.562 250.438 103.788 250.438 105.297V117.328C250.438 118.837 249.212 120.062 247.703 120.062H226.922C225.413 120.062 224.188 118.837 224.188 117.328V105.297ZM226.922 104.75C226.777 104.75 226.638 104.808 226.535 104.91C226.433 105.013 226.375 105.152 226.375 105.297V106.938H227.469C227.759 106.938 228.037 106.822 228.242 106.617C228.447 106.412 228.562 106.134 228.562 105.844V104.75H226.922ZM226.375 117.328C226.375 117.63 226.62 117.875 226.922 117.875H228.562V116.781C228.562 116.491 228.447 116.213 228.242 116.008C228.037 115.803 227.759 115.688 227.469 115.688H226.375V117.328ZM230.75 116.781V117.875H243.875V116.781C243.875 115.911 244.221 115.076 244.836 114.461C245.451 113.846 246.286 113.5 247.156 113.5H248.25V109.125H247.156C246.286 109.125 245.451 108.779 244.836 108.164C244.221 107.549 243.875 106.714 243.875 105.844V104.75H230.75V105.844C230.75 106.714 230.404 107.549 229.789 108.164C229.174 108.779 228.339 109.125 227.469 109.125H226.375V113.5H227.469C228.339 113.5 229.174 113.846 229.789 114.461C230.404 115.076 230.75 115.911 230.75 116.781ZM246.062 117.875H247.703C247.848 117.875 247.987 117.817 248.09 117.715C248.192 117.612 248.25 117.473 248.25 117.328V115.688H247.156C246.866 115.688 246.588 115.803 246.383 116.008C246.178 116.213 246.062 116.491 246.062 116.781V117.875ZM248.25 106.938V105.297C248.25 105.152 248.192 105.013 248.09 104.91C247.987 104.808 247.848 104.75 247.703 104.75H246.062V105.844C246.062 106.134 246.178 106.412 246.383 106.617C246.588 106.822 246.866 106.938 247.156 106.938H248.25Z" fill="white"/>
<path d="M231.844 124.437C231.151 124.438 230.476 124.219 229.915 123.812C229.354 123.404 228.937 122.83 228.722 122.171C229.026 122.224 229.337 122.25 229.656 122.25H247.703C249.008 122.25 250.26 121.731 251.183 120.808C252.106 119.885 252.625 118.633 252.625 117.328V107.123C253.265 107.35 253.819 107.769 254.211 108.323C254.603 108.878 254.813 109.54 254.812 110.219V117.328C254.812 118.262 254.629 119.186 254.271 120.049C253.914 120.911 253.39 121.695 252.73 122.355C252.07 123.015 251.286 123.539 250.424 123.896C249.561 124.254 248.637 124.437 247.703 124.437H231.844Z" fill="white"/>
<path d="M249.616 572.67H239.477V562.531C239.477 562.407 239.375 562.305 239.251 562.305H238.514C237.027 562.302 235.553 562.594 234.179 563.163C232.804 563.732 231.556 564.568 230.505 565.621C229.471 566.652 228.646 567.875 228.078 569.221C227.487 570.616 227.183 572.117 227.186 573.633C227.184 575.12 227.475 576.594 228.045 577.968C228.614 579.343 229.449 580.591 230.502 581.642C231.542 582.681 232.754 583.5 234.102 584.069C235.498 584.66 236.998 584.964 238.514 584.961C240.002 584.963 241.475 584.672 242.85 584.102C244.224 583.533 245.473 582.698 246.523 581.645C247.563 580.605 248.381 579.393 248.95 578.045C249.542 576.649 249.845 575.149 249.842 573.633V572.896C249.842 572.772 249.74 572.67 249.616 572.67ZM245.133 580.311C244.256 581.181 243.216 581.869 242.072 582.337C240.929 582.804 239.704 583.042 238.469 583.035C235.974 583.024 233.629 582.047 231.865 580.282C230.089 578.507 229.112 576.145 229.112 573.633C229.112 571.121 230.089 568.759 231.865 566.983C233.411 565.437 235.402 564.494 237.551 564.279V574.596H247.868C247.65 576.757 246.699 578.759 245.133 580.311ZM252.108 571.095L252.034 570.297C251.794 567.688 250.635 565.227 248.772 563.37C246.907 561.508 244.451 560.356 241.828 560.113L241.026 560.039C240.893 560.028 240.78 560.13 240.78 560.263V571.141C240.78 571.265 240.882 571.367 241.006 571.367L251.881 571.339C252.014 571.339 252.119 571.226 252.108 571.095ZM242.7 569.447V562.18C244.484 562.553 246.121 563.437 247.412 564.723C248.707 566.015 249.593 567.657 249.961 569.427L242.7 569.447Z" fill="white"/>
</g>
<defs>
<filter id="filter0_d_26_6" x="-4" y="66" width="1288" height="662" filterUnits="userSpaceOnUse" color-interpolation-filters="sRGB">
<feFlood flood-opacity="0" result="BackgroundImageFix"/>
<feColorMatrix in="SourceAlpha" type="matrix" values="0 0 0 0 0 0 0 0 0 0 0 0 0 0 0 0 0 0 127 0" result="hardAlpha"/>
<feOffset dy="4"/>
<feGaussianBlur stdDeviation="2"/>
<feComposite in2="hardAlpha" operator="out"/>
<feColorMatrix type="matrix" values="0 0 0 0 0 0 0 0 0 0 0 0 0 0 0 0 0 0 0.25 0"/>
<feBlend mode="normal" in2="BackgroundImageFix" result="effect1_dropShadow_26_6"/>
<feBlend mode="normal" in="SourceGraphic" in2="effect1_dropShadow_26_6" result="shape"/>
</filter>
<filter id="filter1_d_26_6" x="985" y="84" width="281" height="626" filterUnits="userSpaceOnUse" color-interpolation-filters="sRGB">
<feFlood flood-opacity="0" result="BackgroundImageFix"/>
<feColorMatrix in="SourceAlpha" type="matrix" values="0 0 0 0 0 0 0 0 0 0 0 0 0 0 0 0 0 0 127 0" result="hardAlpha"/>
<feOffset dy="4"/>
<feGaussianBlur stdDeviation="2"/>
<feComposite in2="hardAlpha" operator="out"/>
<feColorMatrix type="matrix" values="0 0 0 0 0 0 0 0 0 0 0 0 0 0 0 0 0 0 0.25 0"/>
<feBlend mode="normal" in2="BackgroundImageFix" result="effect1_dropShadow_26_6"/>
<feBlend mode="normal" in="SourceGraphic" in2="effect1_dropShadow_26_6" result="shape"/>
</filter>
<filter id="filter2_d_26_6" x="277" y="484" width="344" height="226" filterUnits="userSpaceOnUse" color-interpolation-filters="sRGB">
<feFlood flood-opacity="0" result="BackgroundImageFix"/>
<feColorMatrix in="SourceAlpha" type="matrix" values="0 0 0 0 0 0 0 0 0 0 0 0 0 0 0 0 0 0 127 0" result="hardAlpha"/>
<feOffset dy="4"/>
<feGaussianBlur stdDeviation="2"/>
<feComposite in2="hardAlpha" operator="out"/>
<feColorMatrix type="matrix" values="0 0 0 0 0 0 0 0 0 0 0 0 0 0 0 0 0 0 0.15 0"/>
<feBlend mode="normal" in2="BackgroundImageFix" result="effect1_dropShadow_26_6"/>
<feBlend mode="normal" in="SourceGraphic" in2="effect1_dropShadow_26_6" result="shape"/>
</filter>
<filter id="filter3_d_26_6" x="631" y="484" width="344" height="226" filterUnits="userSpaceOnUse" color-interpolation-filters="sRGB">
<feFlood flood-opacity="0" result="BackgroundImageFix"/>
<feColorMatrix in="SourceAlpha" type="matrix" values="0 0 0 0 0 0 0 0 0 0 0 0 0 0 0 0 0 0 127 0" result="hardAlpha"/>
<feOffset dy="4"/>
<feGaussianBlur stdDeviation="2"/>
<feComposite in2="hardAlpha" operator="out"/>
<feColorMatrix type="matrix" values="0 0 0 0 0 0 0 0 0 0 0 0 0 0 0 0 0 0 0.15 0"/>
<feBlend mode="normal" in2="BackgroundImageFix" result="effect1_dropShadow_26_6"/>
<feBlend mode="normal" in="SourceGraphic" in2="effect1_dropShadow_26_6" result="shape"/>
</filter>
<filter id="filter4_d_26_6" x="277" y="316" width="698" height="158" filterUnits="userSpaceOnUse" color-interpolation-filters="sRGB">
<feFlood flood-opacity="0" result="BackgroundImageFix"/>
<feColorMatrix in="SourceAlpha" type="matrix" values="0 0 0 0 0 0 0 0 0 0 0 0 0 0 0 0 0 0 127 0" result="hardAlpha"/>
<feOffset dy="4"/>
<feGaussianBlur stdDeviation="2"/>
<feComposite in2="hardAlpha" operator="out"/>
<feColorMatrix type="matrix" values="0 0 0 0 0 0 0 0 0 0 0 0 0 0 0 0 0 0 0.15 0"/>
<feBlend mode="normal" in2="BackgroundImageFix" result="effect1_dropShadow_26_6"/>
<feBlend mode="normal" in="SourceGraphic" in2="effect1_dropShadow_26_6" result="shape"/>
</filter>
<filter id="filter5_d_26_6" x="277" y="84" width="698" height="222" filterUnits="userSpaceOnUse" color-interpolation-filters="sRGB">
<feFlood flood-opacity="0" result="BackgroundImageFix"/>
<feColorMatrix in="SourceAlpha" type="matrix" values="0 0 0 0 0 0 0 0 0 0 0 0 0 0 0 0 0 0 127 0" result="hardAlpha"/>
<feOffset dy="4"/>
<feGaussianBlur stdDeviation="2"/>
<feComposite in2="hardAlpha" operator="out"/>
<feColorMatrix type="matrix" values="0 0 0 0 0 0 0 0 0 0 0 0 0 0 0 0 0 0 0.15 0"/>
<feBlend mode="normal" in2="BackgroundImageFix" result="effect1_dropShadow_26_6"/>
<feBlend mode="normal" in="SourceGraphic" in2="effect1_dropShadow_26_6" result="shape"/>
</filter>
<filter id="filter6_d_26_6" x="14" y="101" width="253" height="139" filterUnits="userSpaceOnUse" color-interpolation-filters="sRGB">
<feFlood flood-opacity="0" result="BackgroundImageFix"/>
<feColorMatrix in="SourceAlpha" type="matrix" values="0 0 0 0 0 0 0 0 0 0 0 0 0 0 0 0 0 0 127 0" result="hardAlpha"/>
<feOffset dy="4"/>
<feGaussianBlur stdDeviation="2"/>
<feComposite in2="hardAlpha" operator="out"/>
<feColorMatrix type="matrix" values="0 0 0 0 0 0 0 0 0 0 0 0 0 0 0 0 0 0 0.25 0"/>
<feBlend mode="normal" in2="BackgroundImageFix" result="effect1_dropShadow_26_6"/>
<feBlend mode="normal" in="SourceGraphic" in2="effect1_dropShadow_26_6" result="shape"/>
</filter>
<filter id="filter7_d_26_6" x="14" y="101" width="253" height="139" filterUnits="userSpaceOnUse" color-interpolation-filters="sRGB">
<feFlood flood-opacity="0" result="BackgroundImageFix"/>
<feColorMatrix in="SourceAlpha" type="matrix" values="0 0 0 0 0 0 0 0 0 0 0 0 0 0 0 0 0 0 127 0" result="hardAlpha"/>
<feOffset dy="4"/>
<feGaussianBlur stdDeviation="2"/>
<feComposite in2="hardAlpha" operator="out"/>
<feColorMatrix type="matrix" values="0 0 0 0 0 0 0 0 0 0 0 0 0 0 0 0 0 0 0.25 0"/>
<feBlend mode="normal" in2="BackgroundImageFix" result="effect1_dropShadow_26_6"/>
<feBlend mode="normal" in="SourceGraphic" in2="effect1_dropShadow_26_6" result="shape"/>
</filter>
<filter id="filter8_d_26_6" x="14" y="254" width="253" height="139" filterUnits="userSpaceOnUse" color-interpolation-filters="sRGB">
<feFlood flood-opacity="0" result="BackgroundImageFix"/>
<feColorMatrix in="SourceAlpha" type="matrix" values="0 0 0 0 0 0 0 0 0 0 0 0 0 0 0 0 0 0 127 0" result="hardAlpha"/>
<feOffset dy="4"/>
<feGaussianBlur stdDeviation="2"/>
<feComposite in2="hardAlpha" operator="out"/>
<feColorMatrix type="matrix" values="0 0 0 0 0 0 0 0 0 0 0 0 0 0 0 0 0 0 0.25 0"/>
<feBlend mode="normal" in2="BackgroundImageFix" result="effect1_dropShadow_26_6"/>
<feBlend mode="normal" in="SourceGraphic" in2="effect1_dropShadow_26_6" result="shape"/>
</filter>
<filter id="filter9_d_26_6" x="14" y="254" width="253" height="139" filterUnits="userSpaceOnUse" color-interpolation-filters="sRGB">
<feFlood flood-opacity="0" result="BackgroundImageFix"/>
<feColorMatrix in="SourceAlpha" type="matrix" values="0 0 0 0 0 0 0 0 0 0 0 0 0 0 0 0 0 0 127 0" result="hardAlpha"/>
<feOffset dy="4"/>
<feGaussianBlur stdDeviation="2"/>
<feComposite in2="hardAlpha" operator="out"/>
<feColorMatrix type="matrix" values="0 0 0 0 0 0 0 0 0 0 0 0 0 0 0 0 0 0 0.25 0"/>
<feBlend mode="normal" in2="BackgroundImageFix" result="effect1_dropShadow_26_6"/>
<feBlend mode="normal" in="SourceGraphic" in2="effect1_dropShadow_26_6" result="shape"/>
</filter>
<filter id="filter10_d_26_6" x="14" y="407" width="253" height="139" filterUnits="userSpaceOnUse" color-interpolation-filters="sRGB">
<feFlood flood-opacity="0" result="BackgroundImageFix"/>
<feColorMatrix in="SourceAlpha" type="matrix" values="0 0 0 0 0 0 0 0 0 0 0 0 0 0 0 0 0 0 127 0" result="hardAlpha"/>
<feOffset dy="4"/>
<feGaussianBlur stdDeviation="2"/>
<feComposite in2="hardAlpha" operator="out"/>
<feColorMatrix type="matrix" values="0 0 0 0 0 0 0 0 0 0 0 0 0 0 0 0 0 0 0.25 0"/>
<feBlend mode="normal" in2="BackgroundImageFix" result="effect1_dropShadow_26_6"/>
<feBlend mode="normal" in="SourceGraphic" in2="effect1_dropShadow_26_6" result="shape"/>
</filter>
<filter id="filter11_d_26_6" x="14" y="407" width="253" height="139" filterUnits="userSpaceOnUse" color-interpolation-filters="sRGB">
<feFlood flood-opacity="0" result="BackgroundImageFix"/>
<feColorMatrix in="SourceAlpha" type="matrix" values="0 0 0 0 0 0 0 0 0 0 0 0 0 0 0 0 0 0 127 0" result="hardAlpha"/>
<feOffset dy="4"/>
<feGaussianBlur stdDeviation="2"/>
<feComposite in2="hardAlpha" operator="out"/>
<feColorMatrix type="matrix" values="0 0 0 0 0 0 0 0 0 0 0 0 0 0 0 0 0 0 0.25 0"/>
<feBlend mode="normal" in2="BackgroundImageFix" result="effect1_dropShadow_26_6"/>
<feBlend mode="normal" in="SourceGraphic" in2="effect1_dropShadow_26_6" result="shape"/>
</filter>
<filter id="filter12_d_26_6" x="14" y="560" width="253" height="139" filterUnits="userSpaceOnUse" color-interpolation-filters="sRGB">
<feFlood flood-opacity="0" result="BackgroundImageFix"/>
<feColorMatrix in="SourceAlpha" type="matrix" values="0 0 0 0 0 0 0 0 0 0 0 0 0 0 0 0 0 0 127 0" result="hardAlpha"/>
<feOffset dy="4"/>
<feGaussianBlur stdDeviation="2"/>
<feComposite in2="hardAlpha" operator="out"/>
<feColorMatrix type="matrix" values="0 0 0 0 0 0 0 0 0 0 0 0 0 0 0 0 0 0 0.25 0"/>
<feBlend mode="normal" in2="BackgroundImageFix" result="effect1_dropShadow_26_6"/>
<feBlend mode="normal" in="SourceGraphic" in2="effect1_dropShadow_26_6" result="shape"/>
</filter>
<filter id="filter13_d_26_6" x="14" y="560" width="253" height="139" filterUnits="userSpaceOnUse" color-interpolation-filters="sRGB">
<feFlood flood-opacity="0" result="BackgroundImageFix"/>
<feColorMatrix in="SourceAlpha" type="matrix" values="0 0 0 0 0 0 0 0 0 0 0 0 0 0 0 0 0 0 127 0" result="hardAlpha"/>
<feOffset dy="4"/>
<feGaussianBlur stdDeviation="2"/>
<feComposite in2="hardAlpha" operator="out"/>
<feColorMatrix type="matrix" values="0 0 0 0 0 0 0 0 0 0 0 0 0 0 0 0 0 0 0.25 0"/>
<feBlend mode="normal" in2="BackgroundImageFix" result="effect1_dropShadow_26_6"/>
<feBlend mode="normal" in="SourceGraphic" in2="effect1_dropShadow_26_6" result="shape"/>
</filter>
<linearGradient id="paint0_linear_26_6" x1="2.72068e-06" y1="81.9999" x2="1285" y2="81.9999" gradientUnits="userSpaceOnUse">
<stop stop-color="#2E2F54"/>
<stop offset="1" stop-color="#5C62BA"/>
</linearGradient>
<linearGradient id="paint1_linear_26_6" x1="1125.17" y1="84" x2="1125.17" y2="702" gradientUnits="userSpaceOnUse">
<stop stop-color="#2D305C"/>
<stop offset="1" stop-color="#494D8E"/>
</linearGradient>
<linearGradient id="paint2_linear_26_6" x1="18" y1="166" x2="263" y2="166" gradientUnits="userSpaceOnUse">
<stop stop-color="#EC4787"/>
<stop offset="1" stop-color="#BB53A2"/>
</linearGradient>
<linearGradient id="paint3_linear_26_6" x1="18" y1="166" x2="263" y2="166" gradientUnits="userSpaceOnUse">
<stop stop-color="#5D46B3"/>
<stop offset="1" stop-color="#987EF5"/>
</linearGradient>
<linearGradient id="paint4_linear_26_6" x1="18" y1="319" x2="263" y2="319" gradientUnits="userSpaceOnUse">
<stop stop-color="#875EC0"/>
<stop offset="1" stop-color="#5948BB"/>
</linearGradient>
<linearGradient id="paint5_linear_26_6" x1="18" y1="319" x2="263" y2="319" gradientUnits="userSpaceOnUse">
<stop stop-color="#4777B3"/>
<stop offset="1" stop-color="#7DB7FF"/>
</linearGradient>
<linearGradient id="paint6_linear_26_6" x1="18" y1="472" x2="263" y2="472" gradientUnits="userSpaceOnUse">
<stop stop-color="#48C5F1"/>
<stop offset="1" stop-color="#6693DB"/>
</linearGradient>
<linearGradient id="paint7_linear_26_6" x1="18" y1="472" x2="263" y2="472" gradientUnits="userSpaceOnUse">
<stop stop-color="#5ABCBF"/>
<stop offset="1" stop-color="#83FBFE"/>
</linearGradient>
<linearGradient id="paint8_linear_26_6" x1="18" y1="625" x2="263" y2="625" gradientUnits="userSpaceOnUse">
<stop stop-color="#FFB92C"/>
<stop offset="1" stop-color="#F58057"/>
</linearGradient>
<linearGradient id="paint9_linear_26_6" x1="18" y1="625" x2="263" y2="625" gradientUnits="userSpaceOnUse">
<stop stop-color="#C97257"/>
<stop offset="1" stop-color="#FFA68B"/>
</linearGradient>
<linearGradient id="paint10_linear_26_6" x1="240" y1="247" x2="240" y2="286" gradientUnits="userSpaceOnUse">
<stop stop-color="#406A9F"/>
<stop offset="1" stop-color="#7CB5FD"/>
</linearGradient>
<linearGradient id="paint11_linear_26_6" x1="240" y1="400" x2="240" y2="439" gradientUnits="userSpaceOnUse">
<stop stop-color="#4FA3A5"/>
<stop offset="1" stop-color="#82F9FC"/>
</linearGradient>
<linearGradient id="paint12_linear_26_6" x1="240" y1="553" x2="240" y2="592" gradientUnits="userSpaceOnUse">
<stop stop-color="#AB624C"/>
<stop offset="1" stop-color="#FEA58A"/>
</linearGradient>
<linearGradient id="paint13_linear_26_6" x1="240" y1="94" x2="240" y2="133" gradientUnits="userSpaceOnUse">
<stop stop-color="#5540A3"/>
<stop offset="1" stop-color="#977DF4"/>
</linearGradient>
<clipPath id="clip0_26_6">
<rect width="1280" height="720" fill="white"/>
</clipPath>
</defs>
</svg>
